<svg width="20" height="19" viewBox="0 0 20 19" fill="none" xmlns="http://www.w3.org/2000/svg">
<path d="M3.84766 3.32031C3.95182 2.59115 4.28385 1.97917 4.84375 1.48438C5.40365 0.989583 6.0612 0.742188 6.81641 0.742188H16.9922C17.8255 0.742188 18.5352 1.04167 19.1211 1.64062C19.707 2.23958 20 2.96224 20 3.80859V8.96484C20 9.72005 19.7559 10.3809 19.2676 10.9473C18.7793 11.5137 18.1771 11.8555 17.4609 11.9727V16.6992C17.4609 16.7904 17.4349 16.8783 17.3828 16.9629C17.3307 17.0475 17.2591 17.1029 17.168 17.1289C17.0768 17.168 16.9824 17.1777 16.8848 17.1582C16.7871 17.1387 16.7057 17.0964 16.6406 17.0312L14.1016 14.4531C13.9583 14.4922 13.8086 14.5247 13.6523 14.5508C13.4961 14.5768 13.3398 14.5898 13.1836 14.5898H8.30078L3.35938 18.6133C3.29427 18.6784 3.21289 18.7207 3.11523 18.7402C3.01758 18.7598 2.92318 18.75 2.83203 18.7109C2.74089 18.6719 2.66927 18.6133 2.61719 18.5352C2.5651 18.457 2.53906 18.3724 2.53906 18.2812V14.5508C1.82292 14.4336 1.2207 14.0918 0.732422 13.5254C0.244141 12.959 0 12.2982 0 11.543V6.38672C0 5.54036 0.292969 4.81771 0.878906 4.21875C1.46484 3.61979 2.17448 3.32031 3.00781 3.32031H3.84766ZM4.76562 3.73047C4.76562 3.74349 4.76562 3.75651 4.76562 3.76953C4.76562 3.78255 4.76562 3.79557 4.76562 3.80859C4.76562 3.82161 4.76562 3.83464 4.76562 3.84766C4.76562 3.86068 4.75911 3.8737 4.74609 3.88672V8.96484C4.74609 9.55078 4.95117 10.0456 5.36133 10.4492C5.77148 10.8529 6.25651 11.0547 6.81641 11.0547H11.8945C11.9596 11.0547 12.0215 11.0677 12.0801 11.0938C12.1387 11.1198 12.194 11.1589 12.2461 11.2109L14.5508 13.5547C14.5508 13.5547 14.554 13.5547 14.5605 13.5547C14.5671 13.5547 14.5703 13.5612 14.5703 13.5742L16.5039 15.5273V11.543C16.5039 11.4128 16.5495 11.2988 16.6406 11.2012C16.7318 11.1035 16.849 11.0547 16.9922 11.0547C17.5521 11.0547 18.0339 10.8529 18.4375 10.4492C18.8411 10.0456 19.043 9.55078 19.043 8.96484V3.80859C19.043 3.22266 18.8411 2.72461 18.4375 2.31445C18.0339 1.9043 17.5521 1.69922 16.9922 1.69922H6.81641C6.26953 1.69922 5.79427 1.89453 5.39062 2.28516C4.98698 2.67578 4.77865 3.15755 4.76562 3.73047ZM13.3008 13.6328L11.6992 12.0117H6.81641C5.98307 12.0117 5.27344 11.7122 4.6875 11.1133C4.10156 10.5143 3.80859 9.79818 3.80859 8.96484V4.27734H3.00781C2.44792 4.27734 1.96615 4.48242 1.5625 4.89258C1.15885 5.30273 0.957031 5.80078 0.957031 6.38672V11.543C0.957031 12.1289 1.15885 12.627 1.5625 13.0371C1.96615 13.4473 2.44792 13.6523 3.00781 13.6523C3.15104 13.6523 3.26823 13.6979 3.35938 13.7891C3.45052 13.8802 3.49609 13.9909 3.49609 14.1211V17.1094L7.75391 13.7891C7.80599 13.737 7.86133 13.7012 7.91992 13.6816C7.97852 13.6621 8.04036 13.6523 8.10547 13.6523H13.1836C13.1966 13.6523 13.2161 13.6491 13.2422 13.6426C13.2682 13.6361 13.2878 13.6328 13.3008 13.6328ZM10.2734 4.27734C10.5208 4.27734 10.7227 4.35547 10.8789 4.51172C11.0352 4.66797 11.1133 4.84375 11.1133 5.03906C11.1133 5.05208 11.1068 5.07487 11.0938 5.10742C11.0807 5.13997 11.0547 5.17578 11.0156 5.21484C10.9766 5.25391 10.9342 5.29622 10.8887 5.3418C10.8431 5.38737 10.7812 5.44271 10.7031 5.50781C10.6901 5.50781 10.6771 5.51432 10.6641 5.52734C10.651 5.54036 10.638 5.55339 10.625 5.56641C10.4688 5.69661 10.293 5.87565 10.0977 6.10352C9.90234 6.33138 9.80469 6.64062 9.80469 7.03125C9.80469 7.16146 9.85026 7.27214 9.94141 7.36328C10.0326 7.45443 10.1432 7.5 10.2734 7.5C10.4036 7.5 10.5143 7.45443 10.6055 7.36328C10.6966 7.27214 10.7422 7.16146 10.7422 7.03125C10.7422 6.88802 10.7845 6.76432 10.8691 6.66016C10.9538 6.55599 11.0742 6.43229 11.2305 6.28906C11.2435 6.28906 11.2565 6.28255 11.2695 6.26953C11.2826 6.25651 11.2891 6.25 11.2891 6.25C11.3672 6.1849 11.4453 6.11979 11.5234 6.05469C11.6016 5.98958 11.6732 5.91797 11.7383 5.83984C11.8294 5.73568 11.9076 5.61849 11.9727 5.48828C12.0378 5.35807 12.0703 5.20833 12.0703 5.03906C12.0703 4.54427 11.8913 4.13411 11.5332 3.80859C11.1751 3.48307 10.7552 3.32031 10.2734 3.32031C9.89583 3.32031 9.55729 3.42122 9.25781 3.62305C8.95833 3.82487 8.74349 4.08203 8.61328 4.39453C8.5612 4.52474 8.55794 4.64844 8.60352 4.76562C8.64909 4.88281 8.73698 4.96745 8.86719 5.01953C8.98438 5.07161 9.10482 5.07487 9.22852 5.0293C9.35221 4.98372 9.4401 4.89583 9.49219 4.76562C9.54427 4.63542 9.64193 4.52148 9.78516 4.42383C9.92839 4.32617 10.0911 4.27734 10.2734 4.27734ZM14.1211 3.32031C13.9909 3.32031 13.8802 3.36914 13.7891 3.4668C13.6979 3.56445 13.6523 3.67839 13.6523 3.80859V7.03125C13.6523 7.16146 13.6979 7.27214 13.7891 7.36328C13.8802 7.45443 13.9909 7.5 14.1211 7.5C14.2513 7.5 14.3652 7.45443 14.4629 7.36328C14.5605 7.27214 14.6094 7.16146 14.6094 7.03125V3.80859C14.6094 3.67839 14.5605 3.56445 14.4629 3.4668C14.3652 3.36914 14.2513 3.32031 14.1211 3.32031ZM9.82422 8.96484C9.82422 9.09505 9.86979 9.20573 9.96094 9.29688C10.0521 9.38802 10.1628 9.43359 10.293 9.43359H10.3125C10.4427 9.43359 10.5566 9.38802 10.6543 9.29688C10.752 9.20573 10.8008 9.09505 10.8008 8.96484C10.8008 8.83464 10.752 8.7207 10.6543 8.62305C10.5566 8.52539 10.4427 8.47656 10.3125 8.47656H10.293C10.1628 8.47656 10.0521 8.52539 9.96094 8.62305C9.86979 8.7207 9.82422 8.83464 9.82422 8.96484ZM13.6328 8.96484C13.6328 9.09505 13.6784 9.20573 13.7695 9.29688C13.8607 9.38802 13.9779 9.43359 14.1211 9.43359C14.2513 9.43359 14.3652 9.38802 14.4629 9.29688C14.5605 9.20573 14.6094 9.09505 14.6094 8.96484C14.6094 8.83464 14.5605 8.7207 14.4629 8.62305C14.3652 8.52539 14.2513 8.47656 14.1211 8.47656C13.9779 8.47656 13.8607 8.52539 13.7695 8.62305C13.6784 8.7207 13.6328 8.83464 13.6328 8.96484Z" fill="#666666"/>
</svg>
