<svg width="16" height="17" viewBox="0 0 16 17" fill="none" xmlns="http://www.w3.org/2000/svg">
<path d="M12.75 1.35942C13.125 0.984416 13.5755 0.796915 14.1016 0.796915C14.6276 0.796915 15.0729 0.984416 15.4375 1.35942C15.8125 1.73442 16 2.18494 16 2.71098C16 3.23702 15.8125 3.68233 15.4375 4.04692L12 7.48442L13.9531 15.3125C13.974 15.375 13.974 15.4375 13.9531 15.5C13.9323 15.5625 13.901 15.6198 13.8594 15.6719L12.8438 16.6875C12.8021 16.7292 12.7552 16.7605 12.7031 16.7813C12.651 16.8021 12.5938 16.8073 12.5312 16.7969C12.4792 16.7969 12.4271 16.7813 12.375 16.75C12.3229 16.7188 12.2812 16.6771 12.25 16.625L8.5 11L8.32812 11.1563C8.10938 11.375 7.8151 11.6589 7.44531 12.0079C7.07552 12.3568 6.65625 12.7084 6.1875 13.0625L6.84375 16.3438C6.85417 16.3959 6.85417 16.4506 6.84375 16.5079C6.83333 16.5651 6.80729 16.6146 6.76562 16.6563C6.73438 16.7084 6.69271 16.7448 6.64062 16.7657C6.58854 16.7865 6.53125 16.7969 6.46875 16.7969H4.4375C4.36458 16.7969 4.29427 16.7735 4.22656 16.7266C4.15885 16.6797 4.10938 16.6198 4.07812 16.5469L3.4375 14.6094C3.27083 14.6615 3.10156 14.7006 2.92969 14.7266C2.75781 14.7526 2.58333 14.7657 2.40625 14.7657C2.30208 14.7657 2.21354 14.7292 2.14062 14.6563C2.06771 14.5834 2.03125 14.4948 2.03125 14.3907C2.03125 14.2136 2.04427 14.0391 2.07031 13.8672C2.09635 13.6954 2.13542 13.5261 2.1875 13.3594L0.265625 12.7188C0.182292 12.6875 0.117188 12.6407 0.0703125 12.5782C0.0234375 12.5157 0 12.4427 0 12.3594V10.3282C0 10.2657 0.0130208 10.2084 0.0390625 10.1563C0.0651042 10.1042 0.0989583 10.0625 0.140625 10.0313C0.182292 9.98962 0.231771 9.96358 0.289062 9.95317C0.346354 9.94275 0.401042 9.94275 0.453125 9.95317L3.73438 10.6094C4.08854 10.1407 4.4401 9.72139 4.78906 9.3516C5.13802 8.98181 5.42188 8.68754 5.64062 8.46879L5.79688 8.29692L0.171875 4.54692C0.119792 4.51567 0.0807292 4.474 0.0546875 4.42192C0.0286458 4.36983 0.0104167 4.31775 0 4.26567C0 4.20317 0.0078125 4.14587 0.0234375 4.09379C0.0390625 4.04171 0.0677083 3.99483 0.109375 3.95317L1.125 2.93754C1.17708 2.88546 1.23438 2.8516 1.29688 2.83598C1.35938 2.82035 1.42188 2.82296 1.48438 2.84379L9.3125 4.79692L12.75 1.35942ZM14.9062 1.89067C14.6771 1.67192 14.4062 1.56254 14.0938 1.56254C13.7812 1.56254 13.5104 1.67192 13.2812 1.89067L9.70312 5.48442C9.65104 5.5365 9.59375 5.57035 9.53125 5.58598C9.46875 5.6016 9.40625 5.60421 9.34375 5.59379L1.51562 3.62504L0.984375 4.15629L6.60938 7.92192C6.66146 7.95317 6.70052 7.99483 6.72656 8.04692C6.7526 8.099 6.77083 8.15108 6.78125 8.20317C6.79167 8.25525 6.78646 8.30994 6.76562 8.36723C6.74479 8.42452 6.71354 8.474 6.67188 8.51567L6.17188 9.00004C5.94271 9.22921 5.64583 9.54171 5.28125 9.93754C4.91667 10.3334 4.55729 10.7709 4.20312 11.25C4.16146 11.3125 4.10417 11.3568 4.03125 11.3829C3.95833 11.4089 3.89062 11.4167 3.82812 11.4063L0.765625 10.7813V12.0782L2.79688 12.7657C2.84896 12.7761 2.89323 12.7995 2.92969 12.836C2.96615 12.8724 2.99479 12.9115 3.01562 12.9532C3.04688 13.0052 3.0625 13.0573 3.0625 13.1094C3.0625 13.1615 3.05208 13.2136 3.03125 13.2657C2.97917 13.3802 2.9375 13.4974 2.90625 13.6172C2.875 13.737 2.84896 13.8542 2.82812 13.9688C2.94271 13.948 3.0599 13.9193 3.17969 13.8829C3.29948 13.8464 3.42188 13.8073 3.54688 13.7657C3.59896 13.7448 3.64844 13.737 3.69531 13.7422C3.74219 13.7474 3.79167 13.7605 3.84375 13.7813C3.88542 13.8021 3.92448 13.8308 3.96094 13.8672C3.9974 13.9037 4.02604 13.948 4.04688 14L4.71875 16.0313H6.01562L5.39062 12.9844C5.38021 12.9115 5.38802 12.8386 5.41406 12.7657C5.4401 12.6927 5.48438 12.6355 5.54688 12.5938C6.02604 12.2396 6.46354 11.8802 6.85938 11.5157C7.25521 11.1511 7.56771 10.8542 7.79688 10.625L8.28125 10.125C8.32292 10.0834 8.36979 10.0547 8.42188 10.0391C8.47396 10.0235 8.53125 10.0157 8.59375 10.0157C8.64583 10.0261 8.69792 10.0443 8.75 10.0704C8.80208 10.0964 8.84375 10.1355 8.875 10.1875L12.625 15.8282L13.1719 15.2813L11.2188 7.46879C11.1979 7.40629 11.1979 7.34119 11.2188 7.27348C11.2396 7.20577 11.2708 7.15108 11.3125 7.10942L14.9062 3.51567C15.125 3.2865 15.2344 3.01567 15.2344 2.70317C15.2344 2.39067 15.125 2.11983 14.9062 1.89067Z" fill="white"/>
</svg>
