<svg width="20" height="19" viewBox="0 0 20 19" fill="none" xmlns="http://www.w3.org/2000/svg">
<path d="M2.91016 2.89862C2.91016 2.80747 2.92969 2.72284 2.96875 2.64471C3.00781 2.56659 3.06641 2.508 3.14453 2.46893L5.58594 0.984558C5.65104 0.945496 5.7194 0.922709 5.79102 0.916199C5.86263 0.909688 5.9375 0.919454 6.01562 0.945496L12.0703 3.42596L15.5078 1.33612C16.2891 0.85435 17.1126 0.717631 17.9785 0.925964C18.8444 1.1343 19.4987 1.6356 19.9414 2.42987C20.0065 2.56008 20.0195 2.69354 19.9805 2.83026C19.9414 2.96698 19.8633 3.06789 19.7461 3.133L3.92578 12.7619C3.80859 12.84 3.6849 12.8596 3.55469 12.8205C3.42448 12.7814 3.32682 12.7033 3.26172 12.5861C3.09245 12.2866 2.95898 12.062 2.86133 11.9123C2.76367 11.7626 2.63021 11.6096 2.46094 11.4533C2.27865 11.2971 2.02148 11.105 1.68945 10.8771C1.35742 10.6493 0.872396 10.327 0.234375 9.91034C0.15625 9.85826 0.0976562 9.79315 0.0585938 9.71503C0.0195312 9.6369 0 9.55227 0 9.46112C0 9.36997 0.0227865 9.28534 0.0683594 9.20721C0.113932 9.12909 0.175781 9.06399 0.253906 9.0119L2.67578 7.54706C2.72786 7.508 2.78646 7.48521 2.85156 7.4787C2.91667 7.47219 2.98177 7.47544 3.04688 7.48846L4.72656 7.89862L7.5 6.1994L3.14453 3.34784C3.06641 3.30878 3.00456 3.24693 2.95898 3.16229C2.91341 3.07766 2.89714 2.98977 2.91016 2.89862ZM4.35547 2.93768L8.71094 5.78925C8.78906 5.82831 8.84766 5.89016 8.88672 5.97479C8.92578 6.05943 8.94531 6.14732 8.94531 6.23846C8.94531 6.32961 8.92253 6.41425 8.87695 6.49237C8.83138 6.5705 8.76953 6.62909 8.69141 6.66815L5.03906 8.89471C4.98698 8.93378 4.93164 8.95656 4.87305 8.96307C4.81445 8.96958 4.7526 8.96633 4.6875 8.95331L3.00781 8.54315L1.44531 9.48065C1.86198 9.75409 2.20052 9.98195 2.46094 10.1642C2.72135 10.3465 2.9362 10.5158 3.10547 10.6721C3.27474 10.8283 3.41471 10.9813 3.52539 11.131C3.63607 11.2808 3.74349 11.4403 3.84766 11.6096L18.7891 2.52753C18.4505 2.17596 18.0241 1.96438 17.5098 1.89276C16.9954 1.82115 16.4974 1.93508 16.0156 2.23456L12.3438 4.44159C12.2917 4.49367 12.2266 4.51971 12.1484 4.51971C12.0703 4.51971 11.9987 4.50669 11.9336 4.48065L5.87891 2.00018L4.35547 2.93768ZM0 18.3478C0 18.2046 0.0488281 18.0842 0.146484 17.9865C0.244141 17.8889 0.364583 17.84 0.507812 17.84H19.4922C19.6354 17.84 19.7559 17.8889 19.8535 17.9865C19.9512 18.0842 20 18.2046 20 18.3478C20 18.478 19.9512 18.592 19.8535 18.6896C19.7559 18.7873 19.6354 18.8361 19.4922 18.8361H0.507812C0.364583 18.8361 0.244141 18.7873 0.146484 18.6896C0.0488281 18.592 0 18.478 0 18.3478Z" fill="#666666"/>
</svg>
