<svg width="21" height="21" viewBox="0 0 21 21" fill="none" xmlns="http://www.w3.org/2000/svg">
<path d="M10.0533 0.718933C10.1314 0.679871 10.216 0.660339 10.3072 0.660339C10.3983 0.660339 10.4765 0.679871 10.5416 0.718933L13.0611 2.08612C13.1262 2.12518 13.1783 2.17401 13.2173 2.2326C13.2564 2.2912 13.2825 2.35956 13.2955 2.43768L14.1744 8.92206L17.7095 10.8557C18.5168 11.2984 19.0474 11.9461 19.3013 12.799C19.5552 13.6519 19.4478 14.4624 18.9791 15.2307C18.9009 15.3609 18.7935 15.4455 18.6568 15.4846C18.5201 15.5236 18.3931 15.5106 18.2759 15.4455L2.02594 6.53925C1.89573 6.47414 1.81435 6.37649 1.7818 6.24628C1.74925 6.11607 1.77203 5.99237 1.85016 5.87518C2.01943 5.5757 2.14638 5.34784 2.23102 5.19159C2.31565 5.03534 2.3775 4.84654 2.41656 4.62518C2.46865 4.39081 2.51097 4.0718 2.54352 3.66815C2.57607 3.26451 2.61188 2.67857 2.65094 1.91034C2.65094 1.83221 2.67698 1.75409 2.72906 1.67596C2.78115 1.59784 2.84625 1.53925 2.92438 1.50018C3.0025 1.4481 3.08714 1.42206 3.17828 1.42206C3.26943 1.42206 3.35406 1.44159 3.43219 1.48065L5.93219 2.84784C5.98427 2.8869 6.02985 2.92922 6.06891 2.97479C6.10797 3.02037 6.13401 3.0757 6.14703 3.14081L6.63531 4.80096L9.48688 6.36346L9.77985 1.14862C9.77985 1.05747 9.80589 0.976095 9.85797 0.90448C9.91005 0.832865 9.97516 0.771016 10.0533 0.718933ZM10.7564 1.98846L10.4634 7.20331C10.4634 7.28143 10.4374 7.35956 10.3853 7.43768C10.3332 7.51581 10.2681 7.58091 10.19 7.633C10.1119 7.67206 10.0272 7.69159 9.9361 7.69159C9.84495 7.69159 9.76031 7.67206 9.68219 7.633L5.93219 5.58221C5.88011 5.54315 5.83453 5.50083 5.79547 5.45526C5.75641 5.40969 5.72386 5.35435 5.69781 5.28925L5.22906 3.62909L3.6275 2.75018C3.60146 3.24497 3.57216 3.65188 3.53961 3.97089C3.50706 4.2899 3.47125 4.56008 3.43219 4.78143C3.38011 5.00279 3.31826 5.20135 3.24664 5.37714C3.17503 5.55292 3.08714 5.73195 2.98297 5.91425L18.315 14.2932C18.4582 13.8244 18.4322 13.3491 18.2369 12.8674C18.0416 12.3856 17.69 12.008 17.1822 11.7346L13.4322 9.68378C13.3671 9.64471 13.315 9.59589 13.2759 9.53729C13.2369 9.4787 13.2108 9.41034 13.1978 9.33221L12.3189 2.84784L10.7564 1.98846ZM0.190002 20.3478C0.190002 20.2046 0.238831 20.0842 0.336487 19.9865C0.434143 19.8889 0.554586 19.84 0.697815 19.84H19.6822C19.8254 19.84 19.9459 19.8889 20.0435 19.9865C20.1412 20.0842 20.19 20.2046 20.19 20.3478C20.19 20.478 20.1412 20.592 20.0435 20.6896C19.9459 20.7873 19.8254 20.8361 19.6822 20.8361H0.697815C0.554586 20.8361 0.434143 20.7873 0.336487 20.6896C0.238831 20.592 0.190002 20.478 0.190002 20.3478Z" fill="#666666"/>
</svg>
