<svg width="21" height="21" viewBox="0 0 21 21" fill="none" xmlns="http://www.w3.org/2000/svg">
<path d="M16.4325 0.703115C16.9012 0.234365 17.4644 -1.14441e-05 18.1219 -1.14441e-05C18.7795 -1.14441e-05 19.3361 0.234365 19.7919 0.703115C20.2606 1.17187 20.495 1.73502 20.495 2.39257C20.495 3.05012 20.2606 3.60676 19.7919 4.06249L15.495 8.35937L17.9364 18.1445C17.9624 18.2226 17.9624 18.3008 17.9364 18.3789C17.9104 18.457 17.8713 18.5286 17.8192 18.5937L16.5497 19.8633C16.4976 19.9154 16.439 19.9544 16.3739 19.9805C16.3088 20.0065 16.2372 20.013 16.1591 20C16.094 20 16.0288 19.9805 15.9637 19.9414C15.8986 19.9023 15.8466 19.8503 15.8075 19.7851L11.12 12.7539L10.9052 12.9492C10.6317 13.2226 10.2639 13.5775 9.80164 14.0137C9.3394 14.4499 8.81531 14.8893 8.22937 15.332L9.04968 19.4336C9.0627 19.4987 9.0627 19.567 9.04968 19.6387C9.03666 19.7103 9.00411 19.7721 8.95203 19.8242C8.91296 19.8893 8.86088 19.9349 8.79578 19.9609C8.73067 19.987 8.65906 20 8.58093 20H6.04187C5.95072 20 5.86283 19.9707 5.7782 19.9121C5.69356 19.8535 5.63171 19.7786 5.59265 19.6875L4.79187 17.2656C4.58354 17.3307 4.37195 17.3795 4.1571 17.4121C3.94226 17.4447 3.72416 17.4609 3.50281 17.4609C3.3726 17.4609 3.26192 17.4154 3.17078 17.3242C3.07963 17.2331 3.03406 17.1224 3.03406 16.9922C3.03406 16.7708 3.05033 16.5527 3.08289 16.3379C3.11544 16.123 3.16427 15.9114 3.22937 15.7031L0.827026 14.9023C0.72286 14.8633 0.641479 14.8047 0.582886 14.7266C0.524292 14.6484 0.494995 14.5573 0.494995 14.4531V11.9141C0.494995 11.8359 0.511271 11.7643 0.543823 11.6992C0.576375 11.6341 0.618693 11.582 0.670776 11.543C0.72286 11.4909 0.784709 11.4583 0.856323 11.4453C0.927938 11.4323 0.996297 11.4323 1.0614 11.4453L5.16296 12.2656C5.60567 11.6797 6.04513 11.1556 6.48132 10.6933C6.91752 10.2311 7.27234 9.86327 7.54578 9.58983L7.74109 9.37499L0.709839 4.68749C0.644735 4.64843 0.595907 4.59634 0.563354 4.53124C0.530802 4.46614 0.508016 4.40103 0.494995 4.33593C0.494995 4.2578 0.504761 4.18619 0.524292 4.12108C0.543823 4.05598 0.579631 3.99739 0.631714 3.9453L1.90125 2.67577C1.96635 2.61067 2.03796 2.56835 2.11609 2.54882C2.19421 2.52929 2.27234 2.53254 2.35046 2.55858L12.1356 4.99999L16.4325 0.703115ZM19.1278 1.36718C18.8413 1.09374 18.5028 0.957022 18.1122 0.957022C17.7216 0.957022 17.383 1.09374 17.0966 1.36718L12.6239 5.85937C12.5588 5.92447 12.4872 5.96679 12.4091 5.98632C12.3309 6.00585 12.2528 6.0091 12.1747 5.99608L2.38953 3.53515L1.72546 4.19921L8.75671 8.90624C8.82182 8.9453 8.87065 8.99739 8.9032 9.06249C8.93575 9.12759 8.95854 9.1927 8.97156 9.2578C8.98458 9.32291 8.97807 9.39127 8.95203 9.46288C8.92598 9.5345 8.88692 9.59634 8.83484 9.64843L8.20984 10.2539C7.92338 10.5404 7.55229 10.931 7.09656 11.4258C6.64083 11.9206 6.19161 12.4674 5.7489 13.0664C5.69682 13.1445 5.6252 13.1999 5.53406 13.2324C5.44291 13.265 5.35828 13.2747 5.28015 13.2617L1.45203 12.4805V14.1016L3.99109 14.9609C4.05619 14.9739 4.11153 15.0032 4.1571 15.0488C4.20268 15.0944 4.23848 15.1432 4.26453 15.1953C4.30359 15.2604 4.32312 15.3255 4.32312 15.3906C4.32312 15.4557 4.3101 15.5208 4.28406 15.5859C4.21895 15.7292 4.16687 15.8756 4.12781 16.0254C4.08875 16.1751 4.05619 16.3216 4.03015 16.4648C4.17338 16.4388 4.31986 16.403 4.4696 16.3574C4.61934 16.3118 4.77234 16.263 4.92859 16.2109C4.99369 16.1849 5.05554 16.1751 5.11414 16.1816C5.17273 16.1881 5.23458 16.2044 5.29968 16.2305C5.35177 16.2565 5.40059 16.2923 5.44617 16.3379C5.49174 16.3835 5.52755 16.4388 5.55359 16.5039L6.39343 19.043H8.01453L7.23328 15.2344C7.22026 15.1432 7.23002 15.0521 7.26257 14.9609C7.29513 14.8698 7.35046 14.7982 7.42859 14.7461C8.02755 14.3034 8.57442 13.8542 9.06921 13.3984C9.56401 12.9427 9.95463 12.5716 10.2411 12.2851L10.8466 11.6601C10.8986 11.6081 10.9572 11.5723 11.0223 11.5527C11.0874 11.5332 11.1591 11.5234 11.2372 11.5234C11.3023 11.5364 11.3674 11.5592 11.4325 11.5918C11.4976 11.6243 11.5497 11.6732 11.5887 11.7383L16.2762 18.7891L16.9598 18.1055L14.5184 8.33983C14.4924 8.26171 14.4924 8.18033 14.5184 8.09569C14.5445 8.01106 14.5835 7.9427 14.6356 7.89062L19.1278 3.39843C19.4012 3.11197 19.538 2.77343 19.538 2.3828C19.538 1.99218 19.4012 1.65364 19.1278 1.36718Z" fill="#1EB5BA"/>
</svg>
