<svg width="12" height="17" viewBox="0 0 12 17" fill="none" xmlns="http://www.w3.org/2000/svg">
<path d="M2.14062 1.20312C2.14062 1.08854 2.1849 0.992188 2.27344 0.914062C2.36198 0.835938 2.46354 0.796875 2.57812 0.796875H8.60938C8.72396 0.796875 8.82552 0.835938 8.91406 0.914062C9.0026 0.992188 9.04688 1.08854 9.04688 1.20312C9.04688 1.30729 9.0026 1.39844 8.91406 1.47656C8.82552 1.55469 8.72396 1.59375 8.60938 1.59375H8.17188V6H9.90625C10.2604 6 10.5625 6.11719 10.8125 6.35156C11.0625 6.58594 11.1875 6.86979 11.1875 7.20312V14.4062C11.1875 14.7292 11.0625 15.0078 10.8125 15.2422C10.5625 15.4766 10.2604 15.5938 9.90625 15.5938V16.4062C9.90625 16.5104 9.86458 16.6016 9.78125 16.6797C9.69792 16.7578 9.59375 16.7969 9.46875 16.7969C9.35417 16.7969 9.25521 16.7578 9.17188 16.6797C9.08854 16.6016 9.04688 16.5104 9.04688 16.4062V15.5938H2.14062V16.4062C2.14062 16.5104 2.09896 16.6016 2.01562 16.6797C1.93229 16.7578 1.83333 16.7969 1.71875 16.7969C1.59375 16.7969 1.48958 16.7578 1.40625 16.6797C1.32292 16.6016 1.28125 16.5104 1.28125 16.4062V15.5938C0.927083 15.5938 0.625 15.4766 0.375 15.2422C0.125 15.0078 0 14.7292 0 14.4062V7.20312C0 6.86979 0.125 6.58594 0.375 6.35156C0.625 6.11719 0.927083 6 1.28125 6H3.01562V1.59375H2.57812C2.46354 1.59375 2.36198 1.55469 2.27344 1.47656C2.1849 1.39844 2.14062 1.30729 2.14062 1.20312ZM3.875 1.59375V6H7.3125V1.59375H3.875ZM1.28125 6.79688C1.16667 6.79688 1.06771 6.83594 0.984375 6.91406C0.901042 6.99219 0.859375 7.08854 0.859375 7.20312V8.79688H10.3281V7.20312C10.3281 7.08854 10.2865 6.99219 10.2031 6.91406C10.1198 6.83594 10.0208 6.79688 9.90625 6.79688H1.28125ZM10.3281 9.59375H0.859375V12H10.3281V9.59375ZM10.3281 12.7969H0.859375V14.4062C0.859375 14.5104 0.901042 14.6016 0.984375 14.6797C1.06771 14.7578 1.16667 14.7969 1.28125 14.7969H9.90625C10.0208 14.7969 10.1198 14.7578 10.2031 14.6797C10.2865 14.6016 10.3281 14.5104 10.3281 14.4062V12.7969Z" fill="white"/>
</svg>
