<svg width="16" height="15" viewBox="0 0 16 15" fill="none" xmlns="http://www.w3.org/2000/svg">
<path d="M0 12.2344C0 12.1302 0.0364583 12.0417 0.109375 11.9688C0.182292 11.8958 0.270833 11.8594 0.375 11.8594H13.5938C13.6979 11.8594 13.7865 11.8958 13.8594 11.9688C13.9323 12.0417 13.9688 12.1302 13.9688 12.2344C13.9688 12.8906 13.7318 13.4479 13.2578 13.9062C12.7839 14.3646 12.2188 14.5938 11.5625 14.5938H2.40625C1.75 14.5938 1.1849 14.3646 0.710938 13.9062C0.236979 13.4479 0 12.8906 0 12.2344ZM0.8125 12.625C0.895833 12.9688 1.08594 13.2578 1.38281 13.4922C1.67969 13.7266 2.02083 13.8438 2.40625 13.8438H11.5625C11.9479 13.8438 12.2891 13.7266 12.5859 13.4922C12.8828 13.2578 13.0729 12.9688 13.1562 12.625H0.8125ZM12.1875 6.3125C12.1875 6.20833 12.224 6.11979 12.2969 6.04688C12.3698 5.97396 12.4635 5.9375 12.5781 5.9375H14.6094C14.9844 5.9375 15.3099 6.07031 15.5859 6.33594C15.862 6.60156 16 6.92188 16 7.29688V8.28125C16 8.9375 15.763 9.49479 15.2891 9.95312C14.8151 10.4115 14.25 10.6406 13.5938 10.6406H12.3906C12.2865 10.6406 12.1979 10.6042 12.125 10.5312C12.0521 10.4583 12.0156 10.3698 12.0156 10.2656C12.0156 10.1615 12.0521 10.0729 12.125 10C12.1979 9.92708 12.2865 9.89062 12.3906 9.89062H13.5938C14.0521 9.89062 14.4401 9.73438 14.7578 9.42188C15.0755 9.10938 15.2344 8.72917 15.2344 8.28125V7.29688C15.2344 7.13021 15.1745 6.98698 15.0547 6.86719C14.9349 6.7474 14.7865 6.6875 14.6094 6.6875H12.5781C12.4635 6.6875 12.3698 6.65104 12.2969 6.57812C12.224 6.50521 12.1875 6.41667 12.1875 6.3125ZM1.01562 6.3125C1.01562 6.20833 1.05208 6.11979 1.125 6.04688C1.19792 5.97396 1.28646 5.9375 1.39062 5.9375H12.5781C12.6823 5.9375 12.7708 5.97396 12.8438 6.04688C12.9167 6.11979 12.9531 6.20833 12.9531 6.3125V9.28125C12.9531 9.73958 12.8646 10.1719 12.6875 10.5781C12.5 10.9844 12.2526 11.3385 11.9453 11.6406C11.638 11.9427 11.276 12.1823 10.8594 12.3594C10.4427 12.5365 10 12.625 9.53125 12.625C9.41667 12.625 9.32292 12.5859 9.25 12.5078C9.17708 12.4297 9.14062 12.3385 9.14062 12.2344C9.14062 12.1302 9.17708 12.0417 9.25 11.9688C9.32292 11.8958 9.41667 11.8594 9.53125 11.8594C10.2708 11.8594 10.8984 11.6068 11.4141 11.1016C11.9297 10.5964 12.1875 9.98958 12.1875 9.28125V6.6875H1.78125V9.28125C1.78125 9.98958 2.03906 10.5964 2.55469 11.1016C3.07031 11.6068 3.69792 11.8594 4.4375 11.8594C4.55208 11.8594 4.64583 11.8958 4.71875 11.9688C4.79167 12.0417 4.82812 12.1302 4.82812 12.2344C4.82812 12.3385 4.79167 12.4297 4.71875 12.5078C4.64583 12.5859 4.55208 12.625 4.4375 12.625C3.96875 12.625 3.52604 12.5365 3.10938 12.3594C2.69271 12.1823 2.33073 11.9427 2.02344 11.6406C1.71615 11.3385 1.46875 10.9844 1.28125 10.5781C1.10417 10.1719 1.01562 9.73958 1.01562 9.28125V6.3125ZM5.71875 0.28125C5.79167 0.21875 5.88281 0.190104 5.99219 0.195312C6.10156 0.200521 6.1875 0.244792 6.25 0.328125C6.39583 0.484375 6.49479 0.651042 6.54688 0.828125C6.59896 1.00521 6.61458 1.18229 6.59375 1.35938C6.57292 1.50521 6.53646 1.65104 6.48438 1.79688C6.43229 1.94271 6.38021 2.07292 6.32812 2.1875C6.32812 2.1875 6.32552 2.1901 6.32031 2.19531C6.3151 2.20052 6.3125 2.20312 6.3125 2.20312C6.26042 2.33854 6.21354 2.45573 6.17188 2.55469C6.13021 2.65365 6.10417 2.75 6.09375 2.84375C6.09375 2.91667 6.10156 2.98698 6.11719 3.05469C6.13281 3.1224 6.17708 3.19792 6.25 3.28125C6.32292 3.36458 6.35677 3.45833 6.35156 3.5625C6.34635 3.66667 6.30208 3.75 6.21875 3.8125C6.14583 3.88542 6.05469 3.91927 5.94531 3.91406C5.83594 3.90885 5.75 3.86458 5.6875 3.78125C5.54167 3.61458 5.44271 3.44531 5.39062 3.27344C5.33854 3.10156 5.32292 2.92708 5.34375 2.75C5.36458 2.60417 5.40104 2.45833 5.45312 2.3125C5.50521 2.16667 5.55729 2.03646 5.60938 1.92188C5.60938 1.92188 5.61198 1.91927 5.61719 1.91406C5.6224 1.90885 5.625 1.90625 5.625 1.90625C5.67708 1.77083 5.72396 1.65365 5.76562 1.55469C5.80729 1.45573 5.83333 1.35938 5.84375 1.26562C5.84375 1.19271 5.83594 1.11979 5.82031 1.04688C5.80469 0.973958 5.76042 0.901042 5.6875 0.828125C5.61458 0.744792 5.58073 0.651042 5.58594 0.546875C5.59115 0.442708 5.63542 0.354167 5.71875 0.28125ZM7.79688 1.29688C7.86979 1.22396 7.96094 1.1875 8.07031 1.1875C8.17969 1.1875 8.27083 1.22396 8.34375 1.29688C8.45833 1.42188 8.53906 1.55208 8.58594 1.6875C8.63281 1.82292 8.64583 1.95833 8.625 2.09375C8.61458 2.20833 8.58594 2.31771 8.53906 2.42188C8.49219 2.52604 8.45312 2.61458 8.42188 2.6875C8.42188 2.69792 8.41927 2.70312 8.41406 2.70312C8.40885 2.70312 8.40625 2.70833 8.40625 2.71875C8.36458 2.80208 8.33073 2.8724 8.30469 2.92969C8.27865 2.98698 8.26562 3.04167 8.26562 3.09375C8.25521 3.11458 8.25521 3.13802 8.26562 3.16406C8.27604 3.1901 8.30208 3.22396 8.34375 3.26562C8.41667 3.33854 8.45312 3.42708 8.45312 3.53125C8.45312 3.63542 8.41146 3.72396 8.32812 3.79688C8.25521 3.88021 8.16667 3.91927 8.0625 3.91406C7.95833 3.90885 7.86979 3.86979 7.79688 3.79688C7.67188 3.67188 7.58854 3.54167 7.54688 3.40625C7.50521 3.27083 7.48958 3.13542 7.5 3C7.52083 2.88542 7.55208 2.77604 7.59375 2.67188C7.63542 2.56771 7.67708 2.47917 7.71875 2.40625C7.71875 2.39583 7.71875 2.39062 7.71875 2.39062C7.71875 2.39062 7.71875 2.38542 7.71875 2.375C7.77083 2.29167 7.80729 2.22135 7.82812 2.16406C7.84896 2.10677 7.86458 2.05208 7.875 2C7.875 1.97917 7.8724 1.95573 7.86719 1.92969C7.86198 1.90365 7.83854 1.86979 7.79688 1.82812C7.72396 1.75521 7.6875 1.66667 7.6875 1.5625C7.6875 1.45833 7.72396 1.36979 7.79688 1.29688Z" fill="white"/>
</svg>
