<svg width="21" height="21" viewBox="0 0 21 21" fill="none" xmlns="http://www.w3.org/2000/svg">
<path d="M4.04236 0.936096C4.17257 0.936096 4.28324 0.981669 4.37439 1.07281C4.46554 1.16396 4.51111 1.28115 4.51111 1.42438V2.85016H6.73767V1.42438C6.73767 1.28115 6.78324 1.16396 6.87439 1.07281C6.96554 0.981669 7.07621 0.936096 7.20642 0.936096C7.34965 0.936096 7.46684 0.981669 7.55798 1.07281C7.64913 1.16396 7.6947 1.28115 7.6947 1.42438V2.85016H9.92126V1.42438C9.92126 1.28115 9.96684 1.16396 10.058 1.07281C10.1491 0.981669 10.2598 0.936096 10.39 0.936096C10.5202 0.936096 10.6309 0.981669 10.722 1.07281C10.8132 1.16396 10.8588 1.28115 10.8588 1.42438V2.85016H13.0853V1.42438C13.0853 1.28115 13.1309 1.16396 13.222 1.07281C13.3132 0.981669 13.4304 0.936096 13.5736 0.936096C13.7038 0.936096 13.8145 0.981669 13.9056 1.07281C13.9968 1.16396 14.0424 1.28115 14.0424 1.42438V2.85016H16.2689V1.42438C16.2689 1.28115 16.3145 1.16396 16.4056 1.07281C16.4968 0.981669 16.6075 0.936096 16.7377 0.936096C16.8679 0.936096 16.9786 0.981669 17.0697 1.07281C17.1608 1.16396 17.2064 1.28115 17.2064 1.42438V2.85016H19.9213C20.0515 2.85016 20.1622 2.89573 20.2533 2.98688C20.3444 3.07802 20.39 3.1887 20.39 3.31891V19.1978C20.39 19.6796 20.2207 20.0897 19.8822 20.4283C19.5437 20.7668 19.1335 20.9361 18.6517 20.9361H2.1283C1.64653 20.9361 1.23637 20.7668 0.897827 20.4283C0.559285 20.0897 0.390015 19.6796 0.390015 19.1978V3.31891C0.390015 3.1887 0.435588 3.07802 0.526733 2.98688C0.617879 2.89573 0.728556 2.85016 0.858765 2.85016H3.57361V1.42438C3.57361 1.28115 3.61918 1.16396 3.71033 1.07281C3.80147 0.981669 3.91215 0.936096 4.04236 0.936096ZM3.57361 3.78766H1.34705V7.28375H19.433V3.78766H17.2064V5.23297C17.2064 5.36318 17.1608 5.47386 17.0697 5.565C16.9786 5.65615 16.8679 5.70172 16.7377 5.70172C16.6075 5.70172 16.4968 5.65615 16.4056 5.565C16.3145 5.47386 16.2689 5.36318 16.2689 5.23297V3.78766H14.0424V5.23297C14.0424 5.36318 13.9968 5.47386 13.9056 5.565C13.8145 5.65615 13.7038 5.70172 13.5736 5.70172C13.4304 5.70172 13.3132 5.65615 13.222 5.565C13.1309 5.47386 13.0853 5.36318 13.0853 5.23297V3.78766H10.8588V5.23297C10.8588 5.36318 10.8132 5.47386 10.722 5.565C10.6309 5.65615 10.5202 5.70172 10.39 5.70172C10.2598 5.70172 10.1491 5.65615 10.058 5.565C9.96684 5.47386 9.92126 5.36318 9.92126 5.23297V3.78766H7.6947V5.23297C7.6947 5.36318 7.64913 5.47386 7.55798 5.565C7.46684 5.65615 7.34965 5.70172 7.20642 5.70172C7.07621 5.70172 6.96554 5.65615 6.87439 5.565C6.78324 5.47386 6.73767 5.36318 6.73767 5.23297V3.78766H4.51111V5.23297C4.51111 5.36318 4.46554 5.47386 4.37439 5.565C4.28324 5.65615 4.17257 5.70172 4.04236 5.70172C3.91215 5.70172 3.80147 5.65615 3.71033 5.565C3.61918 5.47386 3.57361 5.36318 3.57361 5.23297V3.78766ZM19.433 8.24078H1.34705V19.1978C1.34705 19.4192 1.42517 19.6047 1.58142 19.7545C1.73767 19.9042 1.91996 19.9791 2.1283 19.9791H18.6517C18.8601 19.9791 19.0424 19.9042 19.1986 19.7545C19.3549 19.6047 19.433 19.4192 19.433 19.1978V8.24078ZM3.57361 10.3111C3.57361 10.1809 3.61918 10.067 3.71033 9.9693C3.80147 9.87164 3.91215 9.82281 4.04236 9.82281H6.58142C6.71163 9.82281 6.82231 9.87164 6.91345 9.9693C7.0046 10.067 7.05017 10.1809 7.05017 10.3111V12.8502C7.05017 12.9804 7.0046 13.091 6.91345 13.1822C6.82231 13.2733 6.71163 13.3189 6.58142 13.3189H4.04236C3.91215 13.3189 3.80147 13.2733 3.71033 13.1822C3.61918 13.091 3.57361 12.9804 3.57361 12.8502V10.3111ZM4.51111 10.7798V12.3619H6.11267V10.7798H4.51111ZM9.90173 11.5806C9.90173 11.4504 9.94731 11.3365 10.0385 11.2388C10.1296 11.1412 10.2468 11.0923 10.39 11.0923C10.5332 11.0923 10.6504 11.1412 10.7416 11.2388C10.8327 11.3365 10.8783 11.4504 10.8783 11.5806C10.8783 11.7108 10.8327 11.8215 10.7416 11.9127C10.6504 12.0038 10.5332 12.0494 10.39 12.0494C10.2468 12.0494 10.1296 12.0038 10.0385 11.9127C9.94731 11.8215 9.90173 11.7108 9.90173 11.5806ZM14.9799 11.5806C14.9799 11.4504 15.0287 11.3365 15.1263 11.2388C15.224 11.1412 15.3379 11.0923 15.4681 11.0923C15.6114 11.0923 15.7286 11.1412 15.8197 11.2388C15.9108 11.3365 15.9564 11.4504 15.9564 11.5806C15.9564 11.7108 15.9108 11.8215 15.8197 11.9127C15.7286 12.0038 15.6114 12.0494 15.4681 12.0494C15.3379 12.0494 15.224 12.0038 15.1263 11.9127C15.0287 11.8215 14.9799 11.7108 14.9799 11.5806ZM4.82361 16.6588C4.82361 16.5285 4.86918 16.4146 4.96033 16.317C5.05147 16.2193 5.16866 16.1705 5.31189 16.1705C5.4421 16.1705 5.55603 16.2193 5.65369 16.317C5.75134 16.4146 5.80017 16.5285 5.80017 16.6588C5.80017 16.789 5.75134 16.8996 5.65369 16.9908C5.55603 17.0819 5.4421 17.1275 5.31189 17.1275C5.16866 17.1275 5.05147 17.0819 4.96033 16.9908C4.86918 16.8996 4.82361 16.789 4.82361 16.6588ZM9.90173 16.6588C9.90173 16.5285 9.94731 16.4146 10.0385 16.317C10.1296 16.2193 10.2468 16.1705 10.39 16.1705C10.5332 16.1705 10.6504 16.2193 10.7416 16.317C10.8327 16.4146 10.8783 16.5285 10.8783 16.6588C10.8783 16.789 10.8327 16.8996 10.7416 16.9908C10.6504 17.0819 10.5332 17.1275 10.39 17.1275C10.2468 17.1275 10.1296 17.0819 10.0385 16.9908C9.94731 16.8996 9.90173 16.789 9.90173 16.6588ZM14.9799 16.6588C14.9799 16.5285 15.0287 16.4146 15.1263 16.317C15.224 16.2193 15.3379 16.1705 15.4681 16.1705C15.6114 16.1705 15.7286 16.2193 15.8197 16.317C15.9108 16.4146 15.9564 16.5285 15.9564 16.6588C15.9564 16.789 15.9108 16.8996 15.8197 16.9908C15.7286 17.0819 15.6114 17.1275 15.4681 17.1275C15.3379 17.1275 15.224 17.0819 15.1263 16.9908C15.0287 16.8996 14.9799 16.789 14.9799 16.6588Z" fill="#666666"/>
</svg>
