<svg width="21" height="19" viewBox="0 0 21 19" fill="none" xmlns="http://www.w3.org/2000/svg">
<path d="M5.93811 15.1953C5.93811 14.362 6.23108 13.6523 6.81702 13.0664C7.40295 12.4805 8.11259 12.1875 8.94592 12.1875H12.774C13.6074 12.1875 14.317 12.4805 14.903 13.0664C15.4889 13.6523 15.7819 14.362 15.7819 15.1953C15.7819 15.3255 15.7363 15.4362 15.6451 15.5273C15.554 15.6185 15.4433 15.6641 15.3131 15.6641C15.1699 15.6641 15.0527 15.6185 14.9615 15.5273C14.8704 15.4362 14.8248 15.3255 14.8248 15.1953C14.8248 14.6224 14.623 14.1341 14.2194 13.7305C13.8157 13.3268 13.3339 13.125 12.774 13.125H8.94592C8.38603 13.125 7.90426 13.3268 7.50061 13.7305C7.09696 14.1341 6.89514 14.6224 6.89514 15.1953C6.89514 15.3255 6.84957 15.4362 6.75842 15.5273C6.66728 15.6185 6.55009 15.6641 6.40686 15.6641C6.27665 15.6641 6.16597 15.6185 6.07483 15.5273C5.98368 15.4362 5.93811 15.3255 5.93811 15.1953ZM3.8678 5.83984C4.01103 5.83984 4.12821 5.88542 4.21936 5.97656C4.31051 6.06771 4.35608 6.17839 4.35608 6.30859C4.35608 6.3737 4.37236 6.43555 4.40491 6.49414C4.43746 6.55273 4.51884 6.61458 4.64905 6.67969C4.77926 6.74479 4.95504 6.80664 5.17639 6.86523C5.39775 6.92383 5.66467 6.96615 5.97717 6.99219C6.48499 7.05729 7.07418 7.0931 7.74475 7.09961C8.41532 7.10612 9.13472 7.10938 9.90295 7.10938C10.0592 7.10938 10.2187 7.10938 10.3815 7.10938C10.5442 7.10938 10.7037 7.10938 10.86 7.10938C11.0162 7.10938 11.1757 7.10938 11.3385 7.10938C11.5013 7.10938 11.6608 7.10938 11.817 7.10938C12.5852 7.10938 13.3046 7.10612 13.9752 7.09961C14.6458 7.0931 15.235 7.05729 15.7428 6.99219C16.0553 6.96615 16.3222 6.92383 16.5436 6.86523C16.7649 6.80664 16.9407 6.74479 17.0709 6.67969C17.2011 6.61458 17.2825 6.55273 17.3151 6.49414C17.3476 6.43555 17.3639 6.3737 17.3639 6.30859C17.3639 6.17839 17.4095 6.06771 17.5006 5.97656C17.5918 5.88542 17.7089 5.83984 17.8522 5.83984C17.9824 5.83984 18.0931 5.88542 18.1842 5.97656C18.2753 6.06771 18.3209 6.17839 18.3209 6.30859C18.3209 6.59505 18.2428 6.83919 18.0865 7.04102C17.9303 7.24284 17.7415 7.40234 17.5201 7.51953C17.2988 7.63672 17.0449 7.72786 16.7584 7.79297C16.472 7.85807 16.1725 7.91016 15.86 7.94922C15.3131 8.0013 14.6914 8.03385 13.9948 8.04688C13.2981 8.0599 12.5657 8.0599 11.7975 8.04688C11.6412 8.04688 11.485 8.04688 11.3287 8.04688C11.1725 8.04688 11.0162 8.04688 10.86 8.04688C10.7037 8.04688 10.5475 8.04688 10.3912 8.04688C10.235 8.04688 10.0787 8.04688 9.92249 8.04688C9.15426 8.0599 8.42183 8.0599 7.72522 8.04688C7.02861 8.03385 6.40686 8.0013 5.85999 7.94922C5.54749 7.91016 5.24801 7.85807 4.96155 7.79297C4.67509 7.72786 4.42118 7.63672 4.19983 7.51953C3.97847 7.40234 3.78967 7.24284 3.63342 7.04102C3.47717 6.83919 3.39905 6.59505 3.39905 6.30859C3.39905 6.17839 3.44462 6.06771 3.53577 5.97656C3.62691 5.88542 3.73759 5.83984 3.8678 5.83984ZM1.25061 10.0977C1.25061 9.96745 1.29944 9.85677 1.39709 9.76562C1.49475 9.67448 1.60868 9.62891 1.73889 9.62891L2.6178 9.64844C2.98238 9.64844 3.34371 9.68424 3.70178 9.75586C4.05986 9.82747 4.38212 9.95443 4.66858 10.1367C4.96806 10.332 5.20243 10.5892 5.3717 10.9082C5.54097 11.2272 5.62561 11.6016 5.62561 12.0312C5.62561 12.3307 5.51493 12.5879 5.29358 12.8027C5.07222 13.0176 4.81181 13.125 4.51233 13.125H1.32874C1.19853 13.125 1.08785 13.0794 0.996704 12.9883C0.905558 12.8971 0.859985 12.7865 0.859985 12.6562C0.859985 12.526 0.905558 12.4154 0.996704 12.3242C1.08785 12.2331 1.19853 12.1875 1.32874 12.1875H4.51233C4.55139 12.1875 4.5872 12.1712 4.61975 12.1387C4.6523 12.1061 4.66858 12.0703 4.66858 12.0312C4.66858 11.7448 4.61975 11.5169 4.52209 11.3477C4.42444 11.1784 4.29749 11.0417 4.14124 10.9375C3.97196 10.8203 3.75712 10.7324 3.4967 10.6738C3.23629 10.6152 2.93681 10.5859 2.59827 10.5859H1.73889C1.59566 10.5859 1.47847 10.5371 1.38733 10.4395C1.29618 10.3418 1.25061 10.2279 1.25061 10.0977ZM17.5787 10.9375C17.4225 11.0417 17.2955 11.1784 17.1979 11.3477C17.1002 11.5169 17.0514 11.7448 17.0514 12.0312C17.0514 12.0703 17.0677 12.1061 17.1002 12.1387C17.1328 12.1712 17.1686 12.1875 17.2076 12.1875H20.3912C20.5214 12.1875 20.6321 12.2331 20.7233 12.3242C20.8144 12.4154 20.86 12.526 20.86 12.6562C20.86 12.7865 20.8144 12.8971 20.7233 12.9883C20.6321 13.0794 20.5214 13.125 20.3912 13.125H17.2076C16.9082 13.125 16.6477 13.0176 16.4264 12.8027C16.205 12.5879 16.0944 12.3307 16.0944 12.0312C16.0944 11.6016 16.179 11.2272 16.3483 10.9082C16.5175 10.5892 16.7519 10.332 17.0514 10.1367C17.3378 9.95443 17.6601 9.82747 18.0182 9.75586C18.3763 9.68424 18.7441 9.64844 19.1217 9.64844H19.9811C20.1113 9.64844 20.2252 9.69401 20.3229 9.78516C20.4205 9.8763 20.4694 9.98698 20.4694 10.1172C20.4694 10.2474 20.4205 10.3581 20.3229 10.4492C20.2252 10.5404 20.1113 10.5859 19.9811 10.5859H19.1217C18.7832 10.5859 18.4837 10.6152 18.2233 10.6738C17.9628 10.7324 17.748 10.8203 17.5787 10.9375ZM0.859985 6.93359C0.859985 6.63411 0.967407 6.37695 1.18225 6.16211C1.39709 5.94727 1.66077 5.83984 1.97327 5.83984H3.8678C4.01103 5.83984 4.12821 5.88542 4.21936 5.97656C4.31051 6.06771 4.35608 6.17839 4.35608 6.30859C4.35608 6.4388 4.31051 6.54948 4.21936 6.64062C4.12821 6.73177 4.01103 6.77734 3.8678 6.77734H1.97327C1.9342 6.77734 1.8984 6.79362 1.86584 6.82617C1.83329 6.85872 1.81702 6.89453 1.81702 6.93359V7.57812C1.81702 7.79948 1.89514 7.98828 2.05139 8.14453C2.20764 8.30078 2.38993 8.37891 2.59827 8.37891C2.72847 8.37891 2.84241 8.42448 2.94006 8.51562C3.03772 8.60677 3.08655 8.71745 3.08655 8.84766V8.90625C3.08655 8.97135 3.07353 9.0332 3.04749 9.0918C3.02144 9.15039 2.98889 9.20573 2.94983 9.25781C2.66337 9.54427 2.44202 9.82422 2.28577 10.0977C2.12952 10.3711 2.01884 10.638 1.95374 10.8984C1.88863 11.1719 1.84957 11.4518 1.83655 11.7383C1.82353 12.0247 1.81702 12.3307 1.81702 12.6562V17.1094C1.81702 17.1484 1.83329 17.1842 1.86584 17.2168C1.8984 17.2493 1.9342 17.2656 1.97327 17.2656H4.51233C4.55139 17.2656 4.5872 17.2493 4.61975 17.2168C4.6523 17.1842 4.66858 17.1484 4.66858 17.1094V15.1953C4.66858 15.0651 4.71415 14.9544 4.8053 14.8633C4.89644 14.7721 5.00712 14.7266 5.13733 14.7266H16.5826C16.7128 14.7266 16.8235 14.7721 16.9147 14.8633C17.0058 14.9544 17.0514 15.0651 17.0514 15.1953V17.1094C17.0514 17.1484 17.0677 17.1842 17.1002 17.2168C17.1328 17.2493 17.1686 17.2656 17.2076 17.2656H19.7467C19.7858 17.2656 19.8216 17.2493 19.8541 17.2168C19.8867 17.1842 19.903 17.1484 19.903 17.1094V12.6562C19.903 12.3307 19.8964 12.0247 19.8834 11.7383C19.8704 11.4518 19.8313 11.1719 19.7662 10.8984C19.7011 10.638 19.5905 10.3711 19.4342 10.0977C19.278 9.82422 19.0566 9.54427 18.7701 9.25781C18.7311 9.20573 18.6985 9.15039 18.6725 9.0918C18.6464 9.0332 18.6334 8.97135 18.6334 8.90625V8.84766C18.6334 8.71745 18.6823 8.60677 18.7799 8.51562C18.8776 8.42448 18.9915 8.37891 19.1217 8.37891C19.33 8.37891 19.5123 8.30078 19.6686 8.14453C19.8248 7.98828 19.903 7.79948 19.903 7.57812V6.93359C19.903 6.89453 19.8867 6.85872 19.8541 6.82617C19.8216 6.79362 19.7858 6.77734 19.7467 6.77734H17.8522C17.7089 6.77734 17.5918 6.73177 17.5006 6.64062C17.4095 6.54948 17.3639 6.4388 17.3639 6.30859C17.3639 6.17839 17.4095 6.06771 17.5006 5.97656C17.5918 5.88542 17.7089 5.83984 17.8522 5.83984H19.7467C20.0592 5.83984 20.3229 5.94727 20.5377 6.16211C20.7526 6.37695 20.86 6.63411 20.86 6.93359V7.57812C20.86 7.91667 20.7753 8.22266 20.6061 8.49609C20.4368 8.76953 20.2089 8.97786 19.9225 9.12109C20.1178 9.38151 20.2773 9.63867 20.401 9.89258C20.5247 10.1465 20.6191 10.4036 20.6842 10.6641C20.7363 10.8854 20.7753 11.1003 20.8014 11.3086C20.8274 11.5169 20.847 11.7253 20.86 11.9336C20.86 11.9466 20.86 11.9596 20.86 11.9727C20.86 11.9857 20.86 12.0052 20.86 12.0312V12.5781C20.86 12.5911 20.86 12.6009 20.86 12.6074C20.86 12.6139 20.86 12.6237 20.86 12.6367V17.1094C20.86 17.4089 20.7526 17.6693 20.5377 17.8906C20.3229 18.112 20.0592 18.2227 19.7467 18.2227H17.2076C16.9082 18.2227 16.6477 18.112 16.4264 17.8906C16.205 17.6693 16.0944 17.4089 16.0944 17.1094V15.6641H5.62561V17.1094C5.62561 17.4089 5.51493 17.6693 5.29358 17.8906C5.07222 18.112 4.81181 18.2227 4.51233 18.2227H1.97327C1.66077 18.2227 1.39709 18.112 1.18225 17.8906C0.967407 17.6693 0.859985 17.4089 0.859985 17.1094V12.6367C0.859985 12.3242 0.866496 12.002 0.879517 11.6699C0.892537 11.3379 0.944621 11.0026 1.03577 10.6641C1.10087 10.4036 1.19527 10.1465 1.31897 9.89258C1.44267 9.63867 1.60217 9.38151 1.79749 9.12109C1.51103 8.97786 1.28316 8.76953 1.11389 8.49609C0.944621 8.22266 0.859985 7.91667 0.859985 7.57812V6.93359ZM4.70764 2.32422C4.86389 1.88151 5.20894 1.50716 5.7428 1.20117C6.27665 0.895182 6.92118 0.742188 7.67639 0.742188H14.0436C14.7988 0.742188 15.4433 0.895182 15.9772 1.20117C16.511 1.50716 16.8561 1.88151 17.0123 2.32422C17.0123 2.32422 17.0156 2.32747 17.0221 2.33398C17.0286 2.34049 17.0319 2.34375 17.0319 2.34375L18.3014 6.15234C18.3405 6.28255 18.3307 6.40625 18.2721 6.52344C18.2135 6.64062 18.1191 6.71875 17.9889 6.75781C17.8717 6.79688 17.7545 6.78711 17.6373 6.72852C17.5201 6.66992 17.4355 6.58203 17.3834 6.46484L16.1334 2.65625C16.0553 2.46094 15.847 2.2526 15.5084 2.03125C15.1699 1.8099 14.6816 1.69922 14.0436 1.69922H7.67639C7.03837 1.69922 6.55009 1.8099 6.21155 2.03125C5.87301 2.2526 5.66467 2.46094 5.58655 2.65625L4.33655 6.46484C4.28446 6.58203 4.19983 6.66992 4.08264 6.72852C3.96545 6.78711 3.84827 6.79688 3.73108 6.75781C3.60087 6.71875 3.50647 6.64062 3.44788 6.52344C3.38928 6.40625 3.37952 6.28255 3.41858 6.15234L4.68811 2.34375C4.68811 2.34375 4.69137 2.34049 4.69788 2.33398C4.70439 2.32747 4.70764 2.32422 4.70764 2.32422Z" fill="#414042"/>
</svg>
