<svg width="16" height="17" viewBox="0 0 16 17" fill="none" xmlns="http://www.w3.org/2000/svg">
<path d="M4.35938 0.984375C4.35938 0.869792 4.39583 0.776042 4.46875 0.703125C4.54167 0.630208 4.63021 0.59375 4.73438 0.59375H15.625C15.7292 0.59375 15.8177 0.630208 15.8906 0.703125C15.9635 0.776042 16 0.869792 16 0.984375V16.2188C16 16.3229 15.9635 16.4115 15.8906 16.4844C15.8177 16.5573 15.7292 16.5938 15.625 16.5938C15.5208 16.5938 15.4297 16.5573 15.3516 16.4844C15.2734 16.4115 15.2344 16.3229 15.2344 16.2188V1.35938H5.10938V16.2188C5.10938 16.3229 5.07292 16.4115 5 16.4844C4.92708 16.5573 4.83854 16.5938 4.73438 16.5938C4.63021 16.5938 4.54167 16.5573 4.46875 16.4844C4.39583 16.4115 4.35938 16.3229 4.35938 16.2188V4.40625H0.765625V16.2188C0.765625 16.3229 0.726562 16.4115 0.648438 16.4844C0.570312 16.5573 0.479167 16.5938 0.375 16.5938C0.270833 16.5938 0.182292 16.5573 0.109375 16.4844C0.0364583 16.4115 0 16.3229 0 16.2188V4.03125C0 3.92708 0.0364583 3.83594 0.109375 3.75781C0.182292 3.67969 0.270833 3.64062 0.375 3.64062H4.35938V0.984375ZM6.53125 3.01562C6.53125 2.91146 6.56771 2.82031 6.64062 2.74219C6.71354 2.66406 6.80208 2.625 6.90625 2.625H9.09375C9.19792 2.625 9.28646 2.66406 9.35938 2.74219C9.43229 2.82031 9.46875 2.91146 9.46875 3.01562V5.04688C9.46875 5.15104 9.43229 5.23958 9.35938 5.3125C9.28646 5.38542 9.19792 5.42188 9.09375 5.42188H6.90625C6.80208 5.42188 6.71354 5.38542 6.64062 5.3125C6.56771 5.23958 6.53125 5.15104 6.53125 5.04688V3.01562ZM7.29688 3.39062V4.65625H8.70312V3.39062H7.29688ZM10.8906 3.01562C10.8906 2.91146 10.9271 2.82031 11 2.74219C11.0729 2.66406 11.1615 2.625 11.2656 2.625H13.4375C13.5417 2.625 13.6328 2.66406 13.7109 2.74219C13.7891 2.82031 13.8281 2.91146 13.8281 3.01562V5.04688C13.8281 5.15104 13.7891 5.23958 13.7109 5.3125C13.6328 5.38542 13.5417 5.42188 13.4375 5.42188H11.2656C11.1615 5.42188 11.0729 5.38542 11 5.3125C10.9271 5.23958 10.8906 5.15104 10.8906 5.04688V3.01562ZM11.6406 3.39062V4.65625H13.0625V3.39062H11.6406ZM2.5625 5.67188C2.66667 5.67188 2.75521 5.71094 2.82812 5.78906C2.90104 5.86719 2.9375 5.95833 2.9375 6.0625V7.07812C2.9375 7.18229 2.90104 7.27083 2.82812 7.34375C2.75521 7.41667 2.66667 7.45312 2.5625 7.45312C2.45833 7.45312 2.36719 7.41667 2.28906 7.34375C2.21094 7.27083 2.17188 7.18229 2.17188 7.07812V6.0625C2.17188 5.95833 2.21094 5.86719 2.28906 5.78906C2.36719 5.71094 2.45833 5.67188 2.5625 5.67188ZM6.53125 7.07812C6.53125 6.97396 6.56771 6.88281 6.64062 6.80469C6.71354 6.72656 6.80208 6.6875 6.90625 6.6875H9.09375C9.19792 6.6875 9.28646 6.72656 9.35938 6.80469C9.43229 6.88281 9.46875 6.97396 9.46875 7.07812V9.10938C9.46875 9.21354 9.43229 9.30208 9.35938 9.375C9.28646 9.44792 9.19792 9.48438 9.09375 9.48438H6.90625C6.80208 9.48438 6.71354 9.44792 6.64062 9.375C6.56771 9.30208 6.53125 9.21354 6.53125 9.10938V7.07812ZM7.29688 7.45312V8.71875H8.70312V7.45312H7.29688ZM10.8906 7.07812C10.8906 6.97396 10.9271 6.88281 11 6.80469C11.0729 6.72656 11.1615 6.6875 11.2656 6.6875H13.4375C13.5417 6.6875 13.6328 6.72656 13.7109 6.80469C13.7891 6.88281 13.8281 6.97396 13.8281 7.07812V9.10938C13.8281 9.21354 13.7891 9.30208 13.7109 9.375C13.6328 9.44792 13.5417 9.48438 13.4375 9.48438H11.2656C11.1615 9.48438 11.0729 9.44792 11 9.375C10.9271 9.30208 10.8906 9.21354 10.8906 9.10938V7.07812ZM11.6406 7.45312V8.71875H13.0625V7.45312H11.6406ZM2.5625 8.71875C2.66667 8.71875 2.75521 8.75781 2.82812 8.83594C2.90104 8.91406 2.9375 9.00521 2.9375 9.10938V10.125C2.9375 10.2292 2.90104 10.3177 2.82812 10.3906C2.75521 10.4635 2.66667 10.5 2.5625 10.5C2.45833 10.5 2.36719 10.4635 2.28906 10.3906C2.21094 10.3177 2.17188 10.2292 2.17188 10.125V9.10938C2.17188 9.00521 2.21094 8.91406 2.28906 8.83594C2.36719 8.75781 2.45833 8.71875 2.5625 8.71875ZM6.53125 11.1406C6.53125 11.0365 6.56771 10.9453 6.64062 10.8672C6.71354 10.7891 6.80208 10.75 6.90625 10.75H9.09375C9.19792 10.75 9.28646 10.7891 9.35938 10.8672C9.43229 10.9453 9.46875 11.0365 9.46875 11.1406V13.1719C9.46875 13.276 9.43229 13.3646 9.35938 13.4375C9.28646 13.5104 9.19792 13.5469 9.09375 13.5469H6.90625C6.80208 13.5469 6.71354 13.5104 6.64062 13.4375C6.56771 13.3646 6.53125 13.276 6.53125 13.1719V11.1406ZM7.29688 11.5156V12.7812H8.70312V11.5156H7.29688ZM10.8906 11.1406C10.8906 11.0365 10.9271 10.9453 11 10.8672C11.0729 10.7891 11.1615 10.75 11.2656 10.75H13.4375C13.5417 10.75 13.6328 10.7891 13.7109 10.8672C13.7891 10.9453 13.8281 11.0365 13.8281 11.1406V13.1719C13.8281 13.276 13.7891 13.3646 13.7109 13.4375C13.6328 13.5104 13.5417 13.5469 13.4375 13.5469H11.2656C11.1615 13.5469 11.0729 13.5104 11 13.4375C10.9271 13.3646 10.8906 13.276 10.8906 13.1719V11.1406ZM11.6406 11.5156V12.7812H13.0625V11.5156H11.6406ZM2.5625 11.7656C2.66667 11.7656 2.75521 11.8047 2.82812 11.8828C2.90104 11.9609 2.9375 12.0521 2.9375 12.1562V13.1719C2.9375 13.276 2.90104 13.3646 2.82812 13.4375C2.75521 13.5104 2.66667 13.5469 2.5625 13.5469C2.45833 13.5469 2.36719 13.5104 2.28906 13.4375C2.21094 13.3646 2.17188 13.276 2.17188 13.1719V12.1562C2.17188 12.0521 2.21094 11.9609 2.28906 11.8828C2.36719 11.8047 2.45833 11.7656 2.5625 11.7656Z" fill="white"/>
</svg>
