<svg width="21" height="20" viewBox="0 0 21 20" fill="none" xmlns="http://www.w3.org/2000/svg">
<path d="M5.94922 0.234375C5.94922 0.0911458 5.99479 -0.0260417 6.08594 -0.117188C6.17708 -0.208333 6.28776 -0.253906 6.41797 -0.253906H20.0312C20.1615 -0.253906 20.2721 -0.208333 20.3633 -0.117188C20.4544 -0.0260417 20.5 0.0911458 20.5 0.234375V19.2773C20.5 19.4076 20.4544 19.5182 20.3633 19.6094C20.2721 19.7005 20.1615 19.7461 20.0312 19.7461C19.901 19.7461 19.7871 19.7005 19.6895 19.6094C19.5918 19.5182 19.543 19.4076 19.543 19.2773V0.703125H6.88672V19.2773C6.88672 19.4076 6.84115 19.5182 6.75 19.6094C6.65885 19.7005 6.54818 19.7461 6.41797 19.7461C6.28776 19.7461 6.17708 19.7005 6.08594 19.6094C5.99479 19.5182 5.94922 19.4076 5.94922 19.2773V4.51172H1.45703V19.2773C1.45703 19.4076 1.4082 19.5182 1.31055 19.6094C1.21289 19.7005 1.09896 19.7461 0.96875 19.7461C0.838542 19.7461 0.727865 19.7005 0.636719 19.6094C0.545573 19.5182 0.5 19.4076 0.5 19.2773V4.04297C0.5 3.91276 0.545573 3.79883 0.636719 3.70117C0.727865 3.60352 0.838542 3.55469 0.96875 3.55469H5.94922V0.234375ZM8.66406 2.77344C8.66406 2.64323 8.70964 2.5293 8.80078 2.43164C8.89193 2.33398 9.0026 2.28516 9.13281 2.28516H11.8672C11.9974 2.28516 12.1081 2.33398 12.1992 2.43164C12.2904 2.5293 12.3359 2.64323 12.3359 2.77344V5.3125C12.3359 5.44271 12.2904 5.55339 12.1992 5.64453C12.1081 5.73568 11.9974 5.78125 11.8672 5.78125H9.13281C9.0026 5.78125 8.89193 5.73568 8.80078 5.64453C8.70964 5.55339 8.66406 5.44271 8.66406 5.3125V2.77344ZM9.62109 3.24219V4.82422H11.3789V3.24219H9.62109ZM14.1133 2.77344C14.1133 2.64323 14.1589 2.5293 14.25 2.43164C14.3411 2.33398 14.4518 2.28516 14.582 2.28516H17.2969C17.4271 2.28516 17.541 2.33398 17.6387 2.43164C17.7363 2.5293 17.7852 2.64323 17.7852 2.77344V5.3125C17.7852 5.44271 17.7363 5.55339 17.6387 5.64453C17.541 5.73568 17.4271 5.78125 17.2969 5.78125H14.582C14.4518 5.78125 14.3411 5.73568 14.25 5.64453C14.1589 5.55339 14.1133 5.44271 14.1133 5.3125V2.77344ZM15.0508 3.24219V4.82422H16.8281V3.24219H15.0508ZM3.70312 6.09375C3.83333 6.09375 3.94401 6.14258 4.03516 6.24023C4.1263 6.33789 4.17188 6.45182 4.17188 6.58203V7.85156C4.17188 7.98177 4.1263 8.09245 4.03516 8.18359C3.94401 8.27474 3.83333 8.32031 3.70312 8.32031C3.57292 8.32031 3.45898 8.27474 3.36133 8.18359C3.26367 8.09245 3.21484 7.98177 3.21484 7.85156V6.58203C3.21484 6.45182 3.26367 6.33789 3.36133 6.24023C3.45898 6.14258 3.57292 6.09375 3.70312 6.09375ZM8.66406 7.85156C8.66406 7.72135 8.70964 7.60742 8.80078 7.50977C8.89193 7.41211 9.0026 7.36328 9.13281 7.36328H11.8672C11.9974 7.36328 12.1081 7.41211 12.1992 7.50977C12.2904 7.60742 12.3359 7.72135 12.3359 7.85156V10.3906C12.3359 10.5208 12.2904 10.6315 12.1992 10.7227C12.1081 10.8138 11.9974 10.8594 11.8672 10.8594H9.13281C9.0026 10.8594 8.89193 10.8138 8.80078 10.7227C8.70964 10.6315 8.66406 10.5208 8.66406 10.3906V7.85156ZM9.62109 8.32031V9.90234H11.3789V8.32031H9.62109ZM14.1133 7.85156C14.1133 7.72135 14.1589 7.60742 14.25 7.50977C14.3411 7.41211 14.4518 7.36328 14.582 7.36328H17.2969C17.4271 7.36328 17.541 7.41211 17.6387 7.50977C17.7363 7.60742 17.7852 7.72135 17.7852 7.85156V10.3906C17.7852 10.5208 17.7363 10.6315 17.6387 10.7227C17.541 10.8138 17.4271 10.8594 17.2969 10.8594H14.582C14.4518 10.8594 14.3411 10.8138 14.25 10.7227C14.1589 10.6315 14.1133 10.5208 14.1133 10.3906V7.85156ZM15.0508 8.32031V9.90234H16.8281V8.32031H15.0508ZM3.70312 9.90234C3.83333 9.90234 3.94401 9.95117 4.03516 10.0488C4.1263 10.1465 4.17188 10.2604 4.17188 10.3906V11.6602C4.17188 11.7904 4.1263 11.901 4.03516 11.9922C3.94401 12.0833 3.83333 12.1289 3.70312 12.1289C3.57292 12.1289 3.45898 12.0833 3.36133 11.9922C3.26367 11.901 3.21484 11.7904 3.21484 11.6602V10.3906C3.21484 10.2604 3.26367 10.1465 3.36133 10.0488C3.45898 9.95117 3.57292 9.90234 3.70312 9.90234ZM8.66406 12.9297C8.66406 12.7995 8.70964 12.6855 8.80078 12.5879C8.89193 12.4902 9.0026 12.4414 9.13281 12.4414H11.8672C11.9974 12.4414 12.1081 12.4902 12.1992 12.5879C12.2904 12.6855 12.3359 12.7995 12.3359 12.9297V15.4688C12.3359 15.599 12.2904 15.7096 12.1992 15.8008C12.1081 15.8919 11.9974 15.9375 11.8672 15.9375H9.13281C9.0026 15.9375 8.89193 15.8919 8.80078 15.8008C8.70964 15.7096 8.66406 15.599 8.66406 15.4688V12.9297ZM9.62109 13.3984V14.9805H11.3789V13.3984H9.62109ZM14.1133 12.9297C14.1133 12.7995 14.1589 12.6855 14.25 12.5879C14.3411 12.4902 14.4518 12.4414 14.582 12.4414H17.2969C17.4271 12.4414 17.541 12.4902 17.6387 12.5879C17.7363 12.6855 17.7852 12.7995 17.7852 12.9297V15.4688C17.7852 15.599 17.7363 15.7096 17.6387 15.8008C17.541 15.8919 17.4271 15.9375 17.2969 15.9375H14.582C14.4518 15.9375 14.3411 15.8919 14.25 15.8008C14.1589 15.7096 14.1133 15.599 14.1133 15.4688V12.9297ZM15.0508 13.3984V14.9805H16.8281V13.3984H15.0508ZM3.70312 13.7109C3.83333 13.7109 3.94401 13.7598 4.03516 13.8574C4.1263 13.9551 4.17188 14.069 4.17188 14.1992V15.4688C4.17188 15.599 4.1263 15.7096 4.03516 15.8008C3.94401 15.8919 3.83333 15.9375 3.70312 15.9375C3.57292 15.9375 3.45898 15.8919 3.36133 15.8008C3.26367 15.7096 3.21484 15.599 3.21484 15.4688V14.1992C3.21484 14.069 3.26367 13.9551 3.36133 13.8574C3.45898 13.7598 3.57292 13.7109 3.70312 13.7109Z" fill="#414042"/>
</svg>
