<svg width="15" height="15" viewBox="0 0 15 15" fill="none" xmlns="http://www.w3.org/2000/svg">
<path d="M0.75 1.24219C0.75 1.11198 0.802083 0.998047 0.90625 0.900391C1.01042 0.802734 1.13411 0.753906 1.27734 0.753906H14.207C14.3503 0.753906 14.474 0.802734 14.5781 0.900391C14.6823 0.998047 14.7344 1.11198 14.7344 1.24219C14.7344 1.38542 14.6823 1.50586 14.5781 1.60352C14.474 1.70117 14.3503 1.75 14.207 1.75H1.27734C1.13411 1.75 1.01042 1.70117 0.90625 1.60352C0.802083 1.50586 0.75 1.38542 0.75 1.24219ZM0.75 7.74609C0.75 7.61589 0.802083 7.50195 0.90625 7.4043C1.01042 7.30664 1.13411 7.25781 1.27734 7.25781H14.207C14.3503 7.25781 14.474 7.30664 14.5781 7.4043C14.6823 7.50195 14.7344 7.61589 14.7344 7.74609C14.7344 7.88932 14.6823 8.00977 14.5781 8.10742C14.474 8.20508 14.3503 8.25391 14.207 8.25391H1.27734C1.13411 8.25391 1.01042 8.20508 0.90625 8.10742C0.802083 8.00977 0.75 7.88932 0.75 7.74609ZM0.75 14.25C0.75 14.1068 0.802083 13.9863 0.90625 13.8887C1.01042 13.791 1.13411 13.7422 1.27734 13.7422H14.207C14.3503 13.7422 14.474 13.791 14.5781 13.8887C14.6823 13.9863 14.7344 14.1068 14.7344 14.25C14.7344 14.3932 14.6823 14.5137 14.5781 14.6113C14.474 14.709 14.3503 14.7578 14.207 14.7578H1.27734C1.13411 14.7578 1.01042 14.709 0.90625 14.6113C0.802083 14.5137 0.75 14.3932 0.75 14.25Z" fill="#666666"/>
</svg>
