<svg width="20" height="20" viewBox="0 0 20 20" fill="none" xmlns="http://www.w3.org/2000/svg">
<path d="M19.1328 4.47266H17.4336V4.04297C17.4336 3.50911 17.3359 3.01432 17.1406 2.55859C16.9323 2.08984 16.6556 1.68294 16.3105 1.33789C15.9655 0.992839 15.5651 0.722656 15.1094 0.527344C14.6406 0.332031 14.1458 0.234375 13.625 0.234375H6.41797C5.89714 0.234375 5.40885 0.332031 4.95312 0.527344C4.48438 0.722656 4.07747 0.992839 3.73242 1.33789C3.38737 1.68294 3.11719 2.08984 2.92188 2.55859C2.71354 3.01432 2.60938 3.50911 2.60938 4.04297V4.47266H0.929688C0.8125 4.47266 0.711589 4.51497 0.626953 4.59961C0.542318 4.68424 0.5 4.78516 0.5 4.90234V7.01172C0.5 7.12891 0.542318 7.22982 0.626953 7.31445C0.711589 7.39909 0.8125 7.44141 0.929688 7.44141C1.04688 7.44141 1.14453 7.39909 1.22266 7.31445C1.30078 7.22982 1.33984 7.12891 1.33984 7.01172V5.3125H2.60938V15.8789C2.60938 16.2305 2.73633 16.5299 2.99023 16.7773C3.24414 17.0247 3.54036 17.1484 3.87891 17.1484V18.0078C3.87891 18.3594 4.00586 18.6589 4.25977 18.9062C4.51367 19.1536 4.8099 19.2773 5.14844 19.2773H6.41797C6.76953 19.2773 7.06901 19.1536 7.31641 18.9062C7.5638 18.6589 7.6875 18.3594 7.6875 18.0078V17.1484H12.3555V18.0078C12.3555 18.3594 12.4792 18.6589 12.7266 18.9062C12.974 19.1536 13.2734 19.2773 13.625 19.2773H14.8945C15.2461 19.2773 15.5456 19.1536 15.793 18.9062C16.0404 18.6589 16.1641 18.3594 16.1641 18.0078V17.1484C16.5156 17.1484 16.8151 17.0247 17.0625 16.7773C17.3099 16.5299 17.4336 16.2305 17.4336 15.8789V5.3125H18.7031V7.01172C18.7031 7.12891 18.7454 7.22982 18.8301 7.31445C18.9147 7.39909 19.0156 7.44141 19.1328 7.44141C19.25 7.44141 19.3477 7.39909 19.4258 7.31445C19.5039 7.22982 19.543 7.12891 19.543 7.01172V4.90234C19.543 4.78516 19.5039 4.68424 19.4258 4.59961C19.3477 4.51497 19.25 4.47266 19.1328 4.47266ZM6.84766 18.0078C6.84766 18.125 6.80534 18.2227 6.7207 18.3008C6.63607 18.3789 6.53516 18.418 6.41797 18.418H5.14844C5.04427 18.418 4.94987 18.3789 4.86523 18.3008C4.7806 18.2227 4.73828 18.125 4.73828 18.0078V17.1484H6.84766V18.0078ZM15.3242 18.0078C15.3242 18.125 15.2819 18.2227 15.1973 18.3008C15.1126 18.3789 15.0117 18.418 14.8945 18.418H13.625C13.5078 18.418 13.4069 18.3789 13.3223 18.3008C13.2376 18.2227 13.1953 18.125 13.1953 18.0078V17.1484H15.3242V18.0078ZM16.1641 16.3086H3.87891C3.76172 16.3086 3.66406 16.2663 3.58594 16.1816C3.50781 16.097 3.46875 15.9961 3.46875 15.8789V10.8008H16.5938V15.8789C16.5938 15.9961 16.5514 16.097 16.4668 16.1816C16.3822 16.2663 16.2812 16.3086 16.1641 16.3086ZM16.5938 9.96094H3.46875V5.3125H16.5938V9.96094ZM3.46875 4.45312V4.04297C3.46875 3.22266 3.75846 2.52279 4.33789 1.94336C4.91732 1.36393 5.61068 1.07422 6.41797 1.07422H13.625C14.4323 1.07422 15.1289 1.36393 15.7148 1.94336C16.3008 2.52279 16.5938 3.22266 16.5938 4.04297V4.45312H3.46875ZM11.9258 2.34375H8.11719C8 2.34375 7.89909 2.38607 7.81445 2.4707C7.72982 2.55534 7.6875 2.65625 7.6875 2.77344C7.6875 2.89062 7.72982 2.98828 7.81445 3.06641C7.89909 3.14453 8 3.18359 8.11719 3.18359H11.9258C12.043 3.18359 12.1439 3.14453 12.2285 3.06641C12.3132 2.98828 12.3555 2.89062 12.3555 2.77344C12.3555 2.65625 12.3132 2.55534 12.2285 2.4707C12.1439 2.38607 12.043 2.34375 11.9258 2.34375ZM6.22266 12.0703C5.80599 12.0703 5.45443 12.2168 5.16797 12.5098C4.88151 12.8027 4.73828 13.151 4.73828 13.5547C4.73828 13.9714 4.88151 14.3229 5.16797 14.6094C5.45443 14.8958 5.80599 15.0391 6.22266 15.0391C6.6263 15.0391 6.97135 14.8958 7.25781 14.6094C7.54427 14.3229 7.6875 13.9714 7.6875 13.5547C7.6875 13.151 7.54427 12.8027 7.25781 12.5098C6.97135 12.2168 6.6263 12.0703 6.22266 12.0703ZM6.22266 14.1992C6.04036 14.1992 5.88737 14.1341 5.76367 14.0039C5.63997 13.8737 5.57812 13.724 5.57812 13.5547C5.57812 13.3724 5.63997 13.2227 5.76367 13.1055C5.88737 12.9883 6.04036 12.9297 6.22266 12.9297C6.39193 12.9297 6.53841 12.9883 6.66211 13.1055C6.78581 13.2227 6.84766 13.3724 6.84766 13.5547C6.84766 13.724 6.78581 13.8737 6.66211 14.0039C6.53841 14.1341 6.39193 14.1992 6.22266 14.1992ZM13.8398 12.0703C13.4232 12.0703 13.0716 12.2168 12.7852 12.5098C12.4987 12.8027 12.3555 13.151 12.3555 13.5547C12.3555 13.9714 12.4987 14.3229 12.7852 14.6094C13.0716 14.8958 13.4232 15.0391 13.8398 15.0391C14.2435 15.0391 14.5918 14.8958 14.8848 14.6094C15.1777 14.3229 15.3242 13.9714 15.3242 13.5547C15.3242 13.151 15.1777 12.8027 14.8848 12.5098C14.5918 12.2168 14.2435 12.0703 13.8398 12.0703ZM13.8398 14.1992C13.6576 14.1992 13.5046 14.1341 13.3809 14.0039C13.2572 13.8737 13.1953 13.724 13.1953 13.5547C13.1953 13.3724 13.2572 13.2227 13.3809 13.1055C13.5046 12.9883 13.6576 12.9297 13.8398 12.9297C14.0221 12.9297 14.1719 12.9883 14.2891 13.1055C14.4062 13.2227 14.4648 13.3724 14.4648 13.5547C14.4648 13.724 14.4062 13.8737 14.2891 14.0039C14.1719 14.1341 14.0221 14.1992 13.8398 14.1992Z" fill="#414042"/>
</svg>
