<svg width="21" height="19" viewBox="0 0 21 19" fill="none" xmlns="http://www.w3.org/2000/svg">
<path d="M2.77039 5.03906C2.5881 5.03906 2.41883 5.11719 2.26258 5.27344C2.10633 5.42969 2.0282 5.63802 2.0282 5.89844V16.8945C2.0282 17.1549 2.10633 17.3633 2.26258 17.5195C2.41883 17.6758 2.5881 17.7539 2.77039 17.7539H18.2196C18.4019 17.7539 18.5712 17.6758 18.7274 17.5195C18.8837 17.3633 18.9618 17.1549 18.9618 16.8945V5.87891C18.9618 5.61849 18.8837 5.41341 18.7274 5.26367C18.5712 5.11393 18.4019 5.03906 18.2196 5.03906H2.77039ZM0.973517 5.89844C0.973517 5.39062 1.14279 4.94466 1.48133 4.56055C1.81987 4.17643 2.24956 3.98438 2.77039 3.98438H18.2196C18.7404 3.98438 19.1701 4.17643 19.5087 4.56055C19.8472 4.94466 20.0165 5.39062 20.0165 5.89844V16.8945C20.0165 17.4023 19.8472 17.8483 19.5087 18.2324C19.1701 18.6165 18.7404 18.8086 18.2196 18.8086H2.77039C2.24956 18.8086 1.81987 18.6165 1.48133 18.2324C1.14279 17.8483 0.973517 17.4023 0.973517 16.8945V5.89844ZM8.00477 0.800781C7.84852 0.800781 7.69552 0.878906 7.54578 1.03516C7.39604 1.19141 7.32117 1.41276 7.32117 1.69922V3.98438H6.26649V1.69922C6.26649 1.20443 6.42599 0.755208 6.745 0.351562C7.06401 -0.0520833 7.48393 -0.253906 8.00477 -0.253906H13.0048C13.5256 -0.253906 13.9455 -0.0553386 14.2645 0.341797C14.5835 0.738932 14.743 1.19141 14.743 1.69922V3.98438H13.6688V1.69922C13.6688 1.41276 13.594 1.19141 13.4442 1.03516C13.2945 0.878906 13.148 0.800781 13.0048 0.800781H8.00477ZM5.2118 5.03906V17.7344H4.13758V5.03906H5.2118ZM16.8524 5.03906V17.7344H15.7977V5.03906H16.8524ZM11.2274 10.6055L10.6415 9.45312C10.6285 9.41406 10.6089 9.38802 10.5829 9.375C10.5569 9.36198 10.5308 9.35547 10.5048 9.35547C10.4657 9.35547 10.4332 9.36523 10.4071 9.38477C10.3811 9.4043 10.3615 9.42708 10.3485 9.45312L9.78211 10.6055L8.49305 10.8008C8.46701 10.8008 8.44096 10.8105 8.41492 10.8301C8.38888 10.8496 8.36284 10.8724 8.3368 10.8984C8.3368 10.9245 8.34005 10.9538 8.34656 10.9863C8.35307 11.0189 8.36284 11.0417 8.37586 11.0547L9.31336 11.9727L9.07899 13.2422C9.07899 13.2682 9.0855 13.2975 9.09852 13.3301C9.11154 13.3626 9.13107 13.3854 9.15711 13.3984C9.18315 13.4115 9.21245 13.4212 9.245 13.4277C9.27755 13.4342 9.30685 13.4245 9.33289 13.3984L10.4852 12.8125L11.618 13.3984C11.6441 13.4245 11.6734 13.4342 11.7059 13.4277C11.7385 13.4212 11.7678 13.4115 11.7938 13.3984C11.8199 13.3724 11.8394 13.3464 11.8524 13.3203C11.8654 13.2943 11.872 13.2682 11.872 13.2422L11.6571 11.9727L12.5751 11.0547C12.5751 11.0547 12.5848 11.0352 12.6044 10.9961C12.6239 10.957 12.6272 10.9245 12.6141 10.8984C12.6011 10.8724 12.5816 10.8496 12.5555 10.8301C12.5295 10.8105 12.5035 10.8008 12.4774 10.8008L11.1884 10.6055H11.2274ZM10.5048 15.8594C9.87977 15.8594 9.30034 15.7422 8.76649 15.5078C8.21961 15.2734 7.74435 14.9544 7.3407 14.5508C6.93706 14.1471 6.61805 13.6719 6.38367 13.125C6.1493 12.5781 6.03211 11.9987 6.03211 11.3867C6.03211 10.7747 6.1493 10.1953 6.38367 9.64844C6.61805 9.10156 6.93706 8.6263 7.3407 8.22266C7.74435 7.81901 8.21961 7.5 8.76649 7.26562C9.30034 7.03125 9.87977 6.91406 10.5048 6.91406C11.1167 6.91406 11.6962 7.03125 12.243 7.26562C12.7769 7.5 13.2457 7.81901 13.6493 8.22266C14.0529 8.6263 14.372 9.10156 14.6063 9.64844C14.8407 10.1953 14.9579 10.7747 14.9579 11.3867C14.9579 11.9987 14.8407 12.5781 14.6063 13.125C14.372 13.6719 14.0529 14.1471 13.6493 14.5508C13.2457 14.9544 12.7769 15.2734 12.243 15.5078C11.6962 15.7422 11.1167 15.8594 10.5048 15.8594ZM10.5048 7.87109C9.5282 7.87109 8.69813 8.21615 8.01453 8.90625C7.33094 9.59635 6.98914 10.4232 6.98914 11.3867C6.98914 12.3503 7.33094 13.1771 8.01453 13.8672C8.69813 14.5573 9.5282 14.9023 10.5048 14.9023C11.4683 14.9023 12.2951 14.5573 12.9852 13.8672C13.6753 13.1771 14.0204 12.3503 14.0204 11.3867C14.0204 10.4232 13.6753 9.59635 12.9852 8.90625C12.2951 8.21615 11.4683 7.87109 10.5048 7.87109Z" fill="#414042"/>
</svg>
