<svg width="21" height="17" viewBox="0 0 21 17" fill="none" xmlns="http://www.w3.org/2000/svg">
<path d="M3.88611 1.84393C3.46944 1.84393 3.11462 1.99042 2.82166 2.28339C2.52869 2.57635 2.3822 2.93117 2.3822 3.34784C2.3822 3.75149 2.52869 4.09979 2.82166 4.39276C3.11462 4.68573 3.46944 4.83221 3.88611 4.83221C4.30278 4.83221 4.65759 4.68573 4.95056 4.39276C5.24353 4.09979 5.39001 3.75149 5.39001 3.34784C5.39001 2.93117 5.24353 2.57635 4.95056 2.28339C4.65759 1.99042 4.30278 1.84393 3.88611 1.84393ZM1.38611 3.34784C1.38611 2.65774 1.63025 2.06854 2.11853 1.58026C2.60681 1.09198 3.196 0.847839 3.88611 0.847839C4.57621 0.847839 5.16541 1.09198 5.65369 1.58026C6.14197 2.06854 6.38611 2.65774 6.38611 3.34784C6.38611 4.03794 6.14197 4.62714 5.65369 5.11542C5.16541 5.6037 4.57621 5.84784 3.88611 5.84784C3.196 5.84784 2.60681 5.6037 2.11853 5.11542C1.63025 4.62714 1.38611 4.03794 1.38611 3.34784ZM16.8939 1.84393C16.4773 1.84393 16.1224 1.99042 15.8295 2.28339C15.5365 2.57635 15.39 2.93117 15.39 3.34784C15.39 3.75149 15.5365 4.09979 15.8295 4.39276C16.1224 4.68573 16.4773 4.83221 16.8939 4.83221C17.3106 4.83221 17.6654 4.68573 17.9584 4.39276C18.2513 4.09979 18.3978 3.75149 18.3978 3.34784C18.3978 2.93117 18.2513 2.57635 17.9584 2.28339C17.6654 1.99042 17.3106 1.84393 16.8939 1.84393ZM14.3939 3.34784C14.3939 2.65774 14.6381 2.06854 15.1263 1.58026C15.6146 1.09198 16.2038 0.847839 16.8939 0.847839C17.584 0.847839 18.1732 1.09198 18.6615 1.58026C19.1498 2.06854 19.3939 2.65774 19.3939 3.34784C19.3939 4.03794 19.1498 4.62714 18.6615 5.11542C18.1732 5.6037 17.584 5.84784 16.8939 5.84784C16.2038 5.84784 15.6146 5.6037 15.1263 5.11542C14.6381 4.62714 14.3939 4.03794 14.3939 3.34784ZM2.08923 5.84784C1.90694 5.84784 1.74418 5.9162 1.60095 6.05292C1.45772 6.18964 1.38611 6.36867 1.38611 6.59003V9.09003C1.38611 9.31138 1.45772 9.49042 1.60095 9.62714C1.74418 9.76385 1.90694 9.83221 2.08923 9.83221C2.23246 9.83221 2.35291 9.88104 2.45056 9.9787C2.54822 10.0764 2.59705 10.1968 2.59705 10.34V15.0861C2.59705 15.3075 2.66541 15.4898 2.80212 15.633C2.93884 15.7762 3.09835 15.8478 3.28064 15.8478H4.49158C4.67387 15.8478 4.83663 15.7762 4.97986 15.633C5.12309 15.4898 5.1947 15.3075 5.1947 15.0861V10.34C5.1947 10.1968 5.24353 10.0764 5.34119 9.9787C5.43884 9.88104 5.55278 9.83221 5.68298 9.83221C5.8783 9.83221 6.04431 9.76385 6.18103 9.62714C6.31775 9.49042 6.38611 9.31138 6.38611 9.09003V6.59003C6.38611 6.36867 6.31775 6.18964 6.18103 6.05292C6.04431 5.9162 5.8783 5.84784 5.68298 5.84784H2.08923ZM0.390015 6.59003C0.390015 6.12128 0.552775 5.71112 0.878296 5.35956C1.20382 5.008 1.60746 4.83221 2.08923 4.83221H5.68298C6.16475 4.83221 6.5684 5.008 6.89392 5.35956C7.21944 5.71112 7.3822 6.12128 7.3822 6.59003V9.09003C7.3822 9.48065 7.27153 9.82896 7.05017 10.1349C6.82882 10.4409 6.54236 10.6525 6.1908 10.7697V15.0861C6.1908 15.5679 6.02804 15.9813 5.70251 16.3264C5.37699 16.6714 4.97335 16.8439 4.49158 16.8439H3.28064C2.81189 16.8439 2.4115 16.6714 2.07947 16.3264C1.74744 15.9813 1.58142 15.5679 1.58142 15.0861V10.7697C1.22986 10.6525 0.9434 10.4409 0.722046 10.1349C0.500692 9.82896 0.390015 9.48065 0.390015 9.09003V6.59003ZM15.097 5.84784C14.9017 5.84784 14.7357 5.9162 14.599 6.05292C14.4623 6.18964 14.3939 6.36867 14.3939 6.59003V9.09003C14.3939 9.31138 14.4623 9.49042 14.599 9.62714C14.7357 9.76385 14.9017 9.83221 15.097 9.83221C15.2273 9.83221 15.3412 9.88104 15.4388 9.9787C15.5365 10.0764 15.5853 10.1968 15.5853 10.34V15.0861C15.5853 15.3075 15.6569 15.4898 15.8002 15.633C15.9434 15.7762 16.1062 15.8478 16.2885 15.8478H17.4994C17.6817 15.8478 17.8412 15.7762 17.9779 15.633C18.1146 15.4898 18.183 15.3075 18.183 15.0861V10.34C18.183 10.1968 18.2318 10.0764 18.3295 9.9787C18.4271 9.88104 18.5476 9.83221 18.6908 9.83221C18.8731 9.83221 19.0358 9.76385 19.1791 9.62714C19.3223 9.49042 19.3939 9.31138 19.3939 9.09003V6.59003C19.3939 6.36867 19.3223 6.18964 19.1791 6.05292C19.0358 5.9162 18.8731 5.84784 18.6908 5.84784H15.097ZM13.3978 6.59003C13.3978 6.12128 13.5606 5.71112 13.8861 5.35956C14.2116 5.008 14.6153 4.83221 15.097 4.83221H18.6908C19.1726 4.83221 19.5762 5.008 19.9017 5.35956C20.2273 5.71112 20.39 6.12128 20.39 6.59003V9.09003C20.39 9.48065 20.2793 9.82896 20.058 10.1349C19.8366 10.4409 19.5502 10.6525 19.1986 10.7697V15.0861C19.1986 15.5679 19.0326 15.9813 18.7006 16.3264C18.3685 16.6714 17.9681 16.8439 17.4994 16.8439H16.2885C15.8067 16.8439 15.403 16.6714 15.0775 16.3264C14.752 15.9813 14.5892 15.5679 14.5892 15.0861V10.7697C14.2377 10.6525 13.9512 10.4409 13.7299 10.1349C13.5085 9.82896 13.3978 9.48065 13.3978 9.09003V6.59003ZM10.39 7.84003C10.1166 7.84003 9.8822 7.93768 9.68689 8.133C9.49158 8.32831 9.39392 8.56268 9.39392 8.83612C9.39392 9.10956 9.49158 9.34393 9.68689 9.53925C9.8822 9.73456 10.1166 9.83221 10.39 9.83221C10.6635 9.83221 10.8978 9.73456 11.0931 9.53925C11.2885 9.34393 11.3861 9.10956 11.3861 8.83612C11.3861 8.56268 11.2885 8.32831 11.0931 8.133C10.8978 7.93768 10.6635 7.84003 10.39 7.84003ZM8.39783 8.83612C8.39783 8.28925 8.59314 7.8205 8.98376 7.42987C9.37439 7.03925 9.84314 6.84393 10.39 6.84393C10.9369 6.84393 11.4056 7.03925 11.7963 7.42987C12.1869 7.8205 12.3822 8.28925 12.3822 8.83612C12.3822 9.39602 12.1869 9.87128 11.7963 10.2619C11.4056 10.6525 10.9369 10.8478 10.39 10.8478C9.84314 10.8478 9.37439 10.6525 8.98376 10.2619C8.59314 9.87128 8.39783 9.39602 8.39783 8.83612ZM8.39783 11.4924C8.39783 11.0627 8.53455 10.6786 8.80798 10.34C9.08142 10.0015 9.43949 9.83221 9.8822 9.83221H10.8978C11.3405 9.83221 11.6986 10.0015 11.972 10.34C12.2455 10.6786 12.3822 11.0627 12.3822 11.4924V15.7697C12.3822 16.0301 12.2943 16.2743 12.1185 16.5021C11.9427 16.73 11.6986 16.8439 11.3861 16.8439H9.39392C9.08142 16.8439 8.83728 16.73 8.6615 16.5021C8.48572 16.2743 8.39783 16.0301 8.39783 15.7697V11.4924ZM9.8822 10.8478C9.77804 10.8478 9.67061 10.8999 9.55994 11.0041C9.44926 11.1083 9.39392 11.271 9.39392 11.4924V15.7697C9.39392 15.7827 9.39718 15.7958 9.40369 15.8088C9.4102 15.8218 9.41345 15.8348 9.41345 15.8478H11.3666C11.3666 15.8348 11.3698 15.8218 11.3763 15.8088C11.3829 15.7958 11.3861 15.7827 11.3861 15.7697V11.4924C11.3861 11.271 11.3308 11.1083 11.2201 11.0041C11.1094 10.8999 11.002 10.8478 10.8978 10.8478H9.8822Z" fill="#666666"/>
</svg>
