<svg width="20" height="20" viewBox="0 0 20 20" fill="none" xmlns="http://www.w3.org/2000/svg">
<path d="M12.2576 14.1992C12.1664 14.1992 12.0753 14.2155 11.9841 14.248C11.893 14.2806 11.8083 14.3229 11.7302 14.375C11.6521 14.4401 11.5837 14.5117 11.5251 14.5898C11.4666 14.668 11.4177 14.7526 11.3787 14.8438C11.3396 14.9479 11.3168 15.0521 11.3103 15.1562C11.3038 15.2604 11.307 15.3581 11.3201 15.4492C11.3461 15.5534 11.3787 15.651 11.4177 15.7422C11.4568 15.8333 11.5154 15.918 11.5935 15.9961C11.6586 16.0612 11.7335 16.1198 11.8181 16.1719C11.9028 16.224 11.9906 16.2565 12.0818 16.2695C12.1729 16.2956 12.2641 16.3021 12.3552 16.2891C12.4464 16.276 12.5375 16.25 12.6287 16.2109C12.7198 16.1719 12.8012 16.1198 12.8728 16.0547C12.9444 15.9896 13.0063 15.918 13.0583 15.8398C13.1104 15.7487 13.1528 15.6543 13.1853 15.5566C13.2179 15.459 13.2341 15.3581 13.2341 15.2539C13.2341 15.1107 13.2081 14.9772 13.156 14.8535C13.1039 14.7298 13.0323 14.6159 12.9412 14.5117C12.85 14.4206 12.7458 14.3457 12.6287 14.2871C12.5115 14.2285 12.3878 14.1992 12.2576 14.1992ZM15.7927 14.1992C15.7016 14.1992 15.6104 14.2155 15.5193 14.248C15.4281 14.2806 15.337 14.3229 15.2458 14.375C15.1677 14.4401 15.0994 14.5117 15.0408 14.5898C14.9822 14.668 14.9333 14.7526 14.8943 14.8438C14.8682 14.9479 14.8487 15.0521 14.8357 15.1562C14.8227 15.2604 14.8292 15.3581 14.8552 15.4492C14.8682 15.5534 14.8975 15.651 14.9431 15.7422C14.9887 15.8333 15.044 15.918 15.1091 15.9961C15.1742 16.0612 15.2491 16.1198 15.3337 16.1719C15.4184 16.224 15.5063 16.2565 15.5974 16.2695C15.6886 16.2956 15.783 16.3021 15.8806 16.2891C15.9783 16.276 16.0727 16.25 16.1638 16.2109C16.2419 16.1719 16.3201 16.1198 16.3982 16.0547C16.4763 15.9896 16.5414 15.918 16.5935 15.8398C16.6456 15.7487 16.6847 15.6543 16.7107 15.5566C16.7367 15.459 16.7498 15.3581 16.7498 15.2539C16.7498 15.1107 16.727 14.9772 16.6814 14.8535C16.6358 14.7298 16.5675 14.6159 16.4763 14.5117C16.3852 14.4206 16.281 14.3457 16.1638 14.2871C16.0466 14.2285 15.9229 14.1992 15.7927 14.1992ZM8.74194 16.3086C9.00236 16.3086 9.22697 16.2044 9.41577 15.9961C9.60457 15.7878 9.69897 15.5404 9.69897 15.2539C9.69897 14.9674 9.60457 14.7201 9.41577 14.5117C9.22697 14.3034 9.00236 14.1992 8.74194 14.1992C8.46851 14.1992 8.24064 14.3034 8.05835 14.5117C7.87606 14.7201 7.78491 14.9674 7.78491 15.2539C7.78491 15.5404 7.87606 15.7878 8.05835 15.9961C8.24064 16.2044 8.46851 16.3086 8.74194 16.3086ZM5.20679 10.8203C5.11564 10.8203 5.0245 10.8366 4.93335 10.8691C4.8422 10.9017 4.75757 10.944 4.67944 10.9961C4.60132 11.0482 4.53296 11.1165 4.47437 11.2012C4.41577 11.2858 4.36694 11.3737 4.32788 11.4648C4.28882 11.556 4.26603 11.6536 4.25952 11.7578C4.25301 11.862 4.25627 11.9661 4.26929 12.0703C4.29533 12.1745 4.32788 12.2721 4.36694 12.3633C4.40601 12.4544 4.4646 12.5326 4.54272 12.5977C4.60783 12.6758 4.6827 12.7376 4.76733 12.7832C4.85197 12.8288 4.93986 12.8646 5.03101 12.8906C5.12215 12.9167 5.2133 12.9232 5.30444 12.9102C5.39559 12.8971 5.48674 12.8711 5.57788 12.832C5.66903 12.793 5.75041 12.7409 5.82202 12.6758C5.89364 12.6107 5.95549 12.5326 6.00757 12.4414C6.05965 12.3633 6.10197 12.2721 6.13452 12.168C6.16707 12.0638 6.18335 11.9596 6.18335 11.8555C6.18335 11.7253 6.15731 11.5951 6.10522 11.4648C6.05314 11.3346 5.98153 11.224 5.89038 11.1328C5.79924 11.0286 5.69507 10.9505 5.57788 10.8984C5.46069 10.8464 5.337 10.8203 5.20679 10.8203ZM8.74194 9.55078C8.83309 9.55078 8.92424 9.53776 9.01538 9.51172C9.10653 9.48568 9.19116 9.4401 9.26929 9.375C9.34741 9.32292 9.41903 9.25781 9.48413 9.17969C9.54924 9.10156 9.59481 9.01042 9.62085 8.90625C9.65991 8.8151 9.68595 8.71745 9.69897 8.61328C9.712 8.50911 9.70549 8.40495 9.67944 8.30078C9.66642 8.19661 9.63713 8.09896 9.59155 8.00781C9.54598 7.91667 9.49064 7.83854 9.42554 7.77344C9.36043 7.69531 9.28556 7.63346 9.20093 7.58789C9.11629 7.54232 9.02189 7.50651 8.91772 7.48047C8.82658 7.46745 8.73543 7.46419 8.64429 7.4707C8.55314 7.47721 8.462 7.5 8.37085 7.53906C8.2797 7.57812 8.19832 7.63021 8.12671 7.69531C8.05509 7.76042 7.99325 7.83854 7.94116 7.92969C7.88908 8.02083 7.85002 8.11523 7.82397 8.21289C7.79793 8.31055 7.78491 8.41146 7.78491 8.51562C7.78491 8.64583 7.8077 8.77604 7.85327 8.90625C7.89884 9.03646 7.9672 9.15365 8.05835 9.25781C8.1495 9.34896 8.25366 9.42057 8.37085 9.47266C8.48804 9.52474 8.61174 9.55078 8.74194 9.55078ZM15.7927 9.55078C15.8839 9.55078 15.975 9.53776 16.0662 9.51172C16.1573 9.48568 16.2419 9.4401 16.3201 9.375C16.3982 9.32292 16.4698 9.25781 16.5349 9.17969C16.6 9.10156 16.6456 9.01042 16.6716 8.90625C16.7107 8.8151 16.7367 8.71745 16.7498 8.61328C16.7628 8.50911 16.7563 8.40495 16.7302 8.30078C16.7172 8.19661 16.6879 8.09896 16.6423 8.00781C16.5968 7.91667 16.5414 7.83854 16.4763 7.77344C16.4112 7.69531 16.3363 7.63346 16.2517 7.58789C16.1671 7.54232 16.0727 7.50651 15.9685 7.48047C15.8774 7.46745 15.7862 7.46419 15.6951 7.4707C15.6039 7.47721 15.5128 7.5 15.4216 7.53906C15.3305 7.57812 15.2491 7.63021 15.1775 7.69531C15.1059 7.76042 15.044 7.83854 14.9919 7.92969C14.9399 8.02083 14.9008 8.11523 14.8748 8.21289C14.8487 8.31055 14.8357 8.41146 14.8357 8.51562C14.8357 8.64583 14.8585 8.77604 14.9041 8.90625C14.9496 9.03646 15.018 9.15365 15.1091 9.25781C15.2003 9.34896 15.3044 9.42057 15.4216 9.47266C15.5388 9.52474 15.6625 9.55078 15.7927 9.55078ZM17.7263 1.93359H16.3201V1.79688C16.3201 1.52344 16.2712 1.26302 16.1736 1.01562C16.0759 0.768229 15.936 0.546875 15.7537 0.351562C15.5844 0.15625 15.3826 0.00651042 15.1482 -0.0976562C14.9138 -0.201823 14.6729 -0.253906 14.4255 -0.253906H14.406C14.1456 -0.253906 13.9014 -0.201823 13.6736 -0.0976562C13.4457 0.00651042 13.2406 0.15625 13.0583 0.351562C12.8891 0.546875 12.7556 0.768229 12.658 1.01562C12.5603 1.26302 12.5115 1.52344 12.5115 1.79688V1.93359H8.15601V1.79688C8.15601 1.52344 8.11043 1.26302 8.01929 1.01562C7.92814 0.768229 7.79142 0.546875 7.60913 0.351562C7.42684 0.15625 7.22176 0.00651042 6.9939 -0.0976562C6.76603 -0.201823 6.5284 -0.253906 6.28101 -0.253906H6.24194C5.99455 -0.240885 5.75692 -0.182292 5.52905 -0.078125C5.30119 0.0260417 5.10262 0.175781 4.93335 0.371094C4.75106 0.553385 4.61434 0.771484 4.52319 1.02539C4.43205 1.2793 4.38647 1.53646 4.38647 1.79688V1.93359H3.25366C2.95418 1.93359 2.66447 1.9987 2.38452 2.12891C2.10457 2.25911 1.86043 2.4349 1.6521 2.65625C1.44377 2.89062 1.28101 3.15755 1.16382 3.45703C1.04663 3.75651 0.988037 4.06901 0.988037 4.39453V17.2852C0.988037 17.4544 1.00106 17.6172 1.0271 17.7734C1.05314 17.9297 1.09871 18.0794 1.16382 18.2227C1.2159 18.3789 1.28426 18.5254 1.3689 18.6621C1.45353 18.7988 1.54793 18.9193 1.6521 19.0234C1.75627 19.1406 1.8702 19.2448 1.9939 19.3359C2.11759 19.4271 2.25106 19.5052 2.39429 19.5703C2.5245 19.6224 2.66121 19.6647 2.80444 19.6973C2.94767 19.7298 3.09741 19.7461 3.25366 19.7461H17.7263C18.0258 19.7461 18.3155 19.6842 18.5955 19.5605C18.8754 19.4368 19.1195 19.2578 19.3279 19.0234C19.5362 18.8021 19.699 18.5384 19.8162 18.2324C19.9333 17.9264 19.9919 17.6107 19.9919 17.2852V4.43359C19.9919 4.26432 19.9789 4.10156 19.9529 3.94531C19.9268 3.78906 19.8813 3.63281 19.8162 3.47656C19.7641 3.32031 19.6957 3.17708 19.6111 3.04688C19.5264 2.91667 19.432 2.79297 19.3279 2.67578C19.2237 2.55859 19.1098 2.45443 18.9861 2.36328C18.8624 2.27214 18.7354 2.19401 18.6052 2.12891C18.462 2.0638 18.3155 2.01497 18.1658 1.98242C18.016 1.94987 17.8695 1.93359 17.7263 1.93359ZM13.7615 1.79688C13.7615 1.70573 13.7778 1.61784 13.8103 1.5332C13.8429 1.44857 13.8917 1.38021 13.9568 1.32812C14.0089 1.26302 14.074 1.21094 14.1521 1.17188C14.2302 1.13281 14.3149 1.11328 14.406 1.11328H14.4255C14.5037 1.11328 14.5818 1.12956 14.6599 1.16211C14.738 1.19466 14.8097 1.24349 14.8748 1.30859C14.9399 1.3737 14.9854 1.44857 15.0115 1.5332C15.0375 1.61784 15.0505 1.70573 15.0505 1.79688V3.80859C15.0505 3.89974 15.0375 3.98763 15.0115 4.07227C14.9854 4.1569 14.9399 4.23177 14.8748 4.29688C14.8097 4.36198 14.7413 4.41406 14.6697 4.45312C14.5981 4.49219 14.5167 4.51172 14.4255 4.51172H14.406C14.3149 4.51172 14.2302 4.49219 14.1521 4.45312C14.074 4.41406 14.0089 4.36198 13.9568 4.29688C13.8917 4.23177 13.8429 4.1569 13.8103 4.07227C13.7778 3.98763 13.7615 3.89974 13.7615 3.80859V1.79688ZM5.61694 1.79688C5.61694 1.70573 5.63322 1.61784 5.66577 1.5332C5.69832 1.44857 5.74064 1.3737 5.79272 1.30859C5.85783 1.24349 5.92944 1.19466 6.00757 1.16211C6.08569 1.12956 6.16382 1.11328 6.24194 1.11328H6.28101C6.35913 1.11328 6.43726 1.12956 6.51538 1.16211C6.59351 1.19466 6.66512 1.24349 6.73022 1.30859C6.78231 1.3737 6.82463 1.44857 6.85718 1.5332C6.88973 1.61784 6.90601 1.70573 6.90601 1.79688V3.80859C6.90601 3.89974 6.88973 3.98763 6.85718 4.07227C6.82463 4.1569 6.78231 4.23177 6.73022 4.29688C6.66512 4.36198 6.59351 4.41406 6.51538 4.45312C6.43726 4.49219 6.35913 4.51172 6.28101 4.51172H6.24194C6.16382 4.51172 6.08569 4.49219 6.00757 4.45312C5.92944 4.41406 5.85783 4.36198 5.79272 4.29688C5.74064 4.23177 5.69832 4.1569 5.66577 4.07227C5.63322 3.98763 5.61694 3.89974 5.61694 3.80859V1.79688ZM18.5076 6.11328V17.2852C18.5076 17.4023 18.488 17.513 18.449 17.6172C18.4099 17.7214 18.3513 17.8125 18.2732 17.8906C18.2081 17.9688 18.1267 18.0306 18.0291 18.0762C17.9314 18.1217 17.8305 18.1445 17.7263 18.1445H3.25366C3.1495 18.1445 3.04858 18.1217 2.95093 18.0762C2.85327 18.0306 2.77189 17.9688 2.70679 17.8906C2.62866 17.8125 2.57007 17.7214 2.53101 17.6172C2.49194 17.513 2.47241 17.4023 2.47241 17.2852V4.43359C2.47241 4.31641 2.49194 4.20573 2.53101 4.10156C2.57007 3.9974 2.62866 3.90625 2.70679 3.82812C2.77189 3.75 2.85327 3.68815 2.95093 3.64258C3.04858 3.59701 3.1495 3.57422 3.25366 3.57422H4.38647V3.80859C4.38647 4.08203 4.43205 4.3457 4.52319 4.59961C4.61434 4.85352 4.74455 5.07812 4.91382 5.27344C5.09611 5.46875 5.30119 5.62174 5.52905 5.73242C5.75692 5.8431 5.99455 5.89844 6.24194 5.89844H6.28101C6.39819 5.89844 6.51864 5.88542 6.64233 5.85938C6.76603 5.83333 6.88647 5.79427 7.00366 5.74219C7.12085 5.6901 7.23153 5.625 7.33569 5.54688C7.43986 5.46875 7.53752 5.38411 7.62866 5.29297C7.70679 5.1888 7.78166 5.08138 7.85327 4.9707C7.92489 4.86003 7.98022 4.73958 8.01929 4.60938C8.07137 4.47917 8.10718 4.34896 8.12671 4.21875C8.14624 4.08854 8.15601 3.95182 8.15601 3.80859V3.57422H12.5115V3.80859C12.5115 3.95182 12.5212 4.08854 12.5408 4.21875C12.5603 4.34896 12.5961 4.47917 12.6482 4.60938C12.6873 4.73958 12.7426 4.86003 12.8142 4.9707C12.8858 5.08138 12.9672 5.1888 13.0583 5.29297C13.1365 5.38411 13.2276 5.46875 13.3318 5.54688C13.436 5.625 13.5466 5.6901 13.6638 5.74219C13.781 5.79427 13.9014 5.83333 14.0251 5.85938C14.1488 5.88542 14.2758 5.89844 14.406 5.89844H14.4255C14.5557 5.89844 14.6827 5.88542 14.8064 5.85938C14.9301 5.83333 15.044 5.79427 15.1482 5.74219C15.2654 5.6901 15.3761 5.625 15.4802 5.54688C15.5844 5.46875 15.682 5.38411 15.7732 5.29297C15.8643 5.1888 15.9425 5.08138 16.0076 4.9707C16.0727 4.86003 16.1313 4.73958 16.1833 4.60938C16.2224 4.47917 16.255 4.34896 16.281 4.21875C16.307 4.08854 16.3201 3.95182 16.3201 3.80859V3.57422H17.7263C17.7784 3.57422 17.8305 3.57747 17.8826 3.58398C17.9347 3.59049 17.9867 3.60677 18.0388 3.63281C18.0779 3.65885 18.1202 3.6849 18.1658 3.71094C18.2113 3.73698 18.2537 3.76953 18.2927 3.80859C18.3318 3.84766 18.3643 3.89323 18.3904 3.94531C18.4164 3.9974 18.4425 4.04948 18.4685 4.10156C18.4815 4.15365 18.4945 4.20573 18.5076 4.25781C18.5206 4.3099 18.5271 4.36849 18.5271 4.43359L18.5076 6.11328ZM5.20679 14.1992C5.11564 14.1992 5.0245 14.2155 4.93335 14.248C4.8422 14.2806 4.75757 14.3229 4.67944 14.375C4.60132 14.4401 4.53296 14.5117 4.47437 14.5898C4.41577 14.668 4.36694 14.7526 4.32788 14.8438C4.28882 14.9479 4.26603 15.0521 4.25952 15.1562C4.25301 15.2604 4.25627 15.3581 4.26929 15.4492C4.29533 15.5534 4.32788 15.651 4.36694 15.7422C4.40601 15.8333 4.4646 15.918 4.54272 15.9961C4.60783 16.0612 4.6827 16.1198 4.76733 16.1719C4.85197 16.224 4.93986 16.2565 5.03101 16.2695C5.12215 16.2956 5.2133 16.3021 5.30444 16.2891C5.39559 16.276 5.48674 16.25 5.57788 16.2109C5.66903 16.1719 5.75041 16.1198 5.82202 16.0547C5.89364 15.9896 5.95549 15.918 6.00757 15.8398C6.05965 15.7487 6.10197 15.6543 6.13452 15.5566C6.16707 15.459 6.18335 15.3581 6.18335 15.2539C6.18335 15.1107 6.15731 14.9772 6.10522 14.8535C6.05314 14.7298 5.98153 14.6159 5.89038 14.5117C5.79924 14.4206 5.69507 14.3457 5.57788 14.2871C5.46069 14.2285 5.337 14.1992 5.20679 14.1992ZM16.0662 10.1562H8.46851C8.24715 10.1562 8.03882 10.1986 7.84351 10.2832C7.64819 10.3678 7.47892 10.4948 7.33569 10.6641C7.17944 10.8203 7.06226 11.0059 6.98413 11.2207C6.90601 11.4355 6.86694 11.6536 6.86694 11.875C6.86694 12.1094 6.90601 12.334 6.98413 12.5488C7.06226 12.7637 7.17944 12.9492 7.33569 13.1055C7.47892 13.2747 7.64819 13.4017 7.84351 13.4863C8.03882 13.571 8.24715 13.6133 8.46851 13.6133H16.0662C16.2745 13.6133 16.4763 13.571 16.6716 13.4863C16.8669 13.4017 17.0427 13.2747 17.199 13.1055C17.3422 12.9492 17.4529 12.7637 17.531 12.5488C17.6091 12.334 17.6482 12.1094 17.6482 11.875C17.6482 11.6536 17.6091 11.4355 17.531 11.2207C17.4529 11.0059 17.3422 10.8203 17.199 10.6641C17.0427 10.4948 16.8669 10.3678 16.6716 10.2832C16.4763 10.1986 16.2745 10.1562 16.0662 10.1562ZM8.74194 12.9297C8.6508 12.9297 8.55965 12.9134 8.46851 12.8809C8.37736 12.8483 8.29272 12.806 8.2146 12.7539C8.12345 12.7018 8.04858 12.6335 7.98999 12.5488C7.9314 12.4642 7.88257 12.3763 7.84351 12.2852C7.81746 12.194 7.79793 12.0964 7.78491 11.9922C7.77189 11.888 7.7784 11.7839 7.80444 11.6797C7.81746 11.5755 7.84676 11.4779 7.89233 11.3867C7.93791 11.2956 7.99325 11.2174 8.05835 11.1523C8.12345 11.0742 8.19832 11.0091 8.28296 10.957C8.36759 10.9049 8.45549 10.8724 8.54663 10.8594C8.63778 10.8333 8.73218 10.8268 8.82983 10.8398C8.92749 10.8529 9.02189 10.8789 9.11304 10.918C9.19116 10.957 9.26929 11.0091 9.34741 11.0742C9.42554 11.1393 9.49064 11.2174 9.54272 11.3086C9.59481 11.3867 9.63387 11.4779 9.65991 11.582C9.68595 11.6862 9.69897 11.7839 9.69897 11.875C9.69897 12.0182 9.67619 12.1549 9.63062 12.2852C9.58504 12.4154 9.51668 12.526 9.42554 12.6172C9.33439 12.7214 9.23022 12.7995 9.11304 12.8516C8.99585 12.9036 8.87215 12.9297 8.74194 12.9297ZM12.2576 12.9297C12.1664 12.9297 12.0753 12.9134 11.9841 12.8809C11.893 12.8483 11.8083 12.806 11.7302 12.7539C11.6521 12.7018 11.5837 12.6335 11.5251 12.5488C11.4666 12.4642 11.4177 12.3763 11.3787 12.2852C11.3396 12.194 11.3168 12.0964 11.3103 11.9922C11.3038 11.888 11.307 11.7839 11.3201 11.6797C11.3331 11.5755 11.3624 11.4779 11.408 11.3867C11.4535 11.2956 11.5154 11.2174 11.5935 11.1523C11.6586 11.0742 11.7335 11.0091 11.8181 10.957C11.9028 10.9049 11.9906 10.8724 12.0818 10.8594C12.1729 10.8333 12.2641 10.8268 12.3552 10.8398C12.4464 10.8529 12.5375 10.8789 12.6287 10.918C12.7198 10.957 12.8012 11.0091 12.8728 11.0742C12.9444 11.1393 13.0063 11.2174 13.0583 11.3086C13.1104 11.3867 13.1528 11.4779 13.1853 11.582C13.2179 11.6862 13.2341 11.7839 13.2341 11.875C13.2341 12.0182 13.2081 12.1549 13.156 12.2852C13.1039 12.4154 13.0323 12.526 12.9412 12.6172C12.85 12.7214 12.7458 12.7995 12.6287 12.8516C12.5115 12.9036 12.3878 12.9297 12.2576 12.9297ZM15.7927 12.9297C15.7016 12.9297 15.6104 12.9134 15.5193 12.8809C15.4281 12.8483 15.337 12.806 15.2458 12.7539C15.1677 12.7018 15.0994 12.6335 15.0408 12.5488C14.9822 12.4642 14.9333 12.3763 14.8943 12.2852C14.8682 12.194 14.8487 12.0964 14.8357 11.9922C14.8227 11.888 14.8292 11.7839 14.8552 11.6797C14.8682 11.5755 14.8975 11.4779 14.9431 11.3867C14.9887 11.2956 15.044 11.2174 15.1091 11.1523C15.1742 11.0742 15.2491 11.0091 15.3337 10.957C15.4184 10.9049 15.5063 10.8724 15.5974 10.8594C15.6886 10.8333 15.783 10.8268 15.8806 10.8398C15.9783 10.8529 16.0727 10.8789 16.1638 10.918C16.2419 10.957 16.3201 11.0091 16.3982 11.0742C16.4763 11.1393 16.5414 11.2174 16.5935 11.3086C16.6456 11.3867 16.6847 11.4779 16.7107 11.582C16.7367 11.6862 16.7498 11.7839 16.7498 11.875C16.7498 12.0182 16.727 12.1549 16.6814 12.2852C16.6358 12.4154 16.5675 12.526 16.4763 12.6172C16.3852 12.7214 16.281 12.7995 16.1638 12.8516C16.0466 12.9036 15.9229 12.9297 15.7927 12.9297ZM12.2576 9.55078C12.3617 9.55078 12.4594 9.53776 12.5505 9.51172C12.6417 9.48568 12.7263 9.4401 12.8044 9.375C12.8826 9.32292 12.9509 9.25781 13.0095 9.17969C13.0681 9.10156 13.1169 9.01042 13.156 8.90625C13.1951 8.8151 13.2179 8.71745 13.2244 8.61328C13.2309 8.50911 13.2276 8.40495 13.2146 8.30078C13.1886 8.19661 13.1528 8.09896 13.1072 8.00781C13.0616 7.91667 13.0063 7.83854 12.9412 7.77344C12.8761 7.69531 12.8012 7.63346 12.7166 7.58789C12.6319 7.54232 12.544 7.50651 12.4529 7.48047C12.3617 7.46745 12.2673 7.46419 12.1697 7.4707C12.072 7.47721 11.9841 7.5 11.906 7.53906C11.8149 7.57812 11.7335 7.63021 11.6619 7.69531C11.5903 7.76042 11.5219 7.83854 11.4568 7.92969C11.4047 8.02083 11.3656 8.11523 11.3396 8.21289C11.3136 8.31055 11.3005 8.41146 11.3005 8.51562C11.3005 8.64583 11.3266 8.77604 11.3787 8.90625C11.4307 9.03646 11.5024 9.15365 11.5935 9.25781C11.6716 9.34896 11.7725 9.42057 11.8962 9.47266C12.0199 9.52474 12.1404 9.55078 12.2576 9.55078Z" fill="#414042"/>
</svg>
