<svg width="16" height="17" viewBox="0 0 16 17" fill="none" xmlns="http://www.w3.org/2000/svg">
<path d="M6.42188 3.95312C6.42188 3.85938 6.45833 3.77604 6.53125 3.70312C6.60417 3.63021 6.6875 3.59375 6.78125 3.59375H9.21875C9.3125 3.59375 9.39583 3.63021 9.46875 3.70312C9.54167 3.77604 9.57812 3.85938 9.57812 3.95312V6.01562H11.6406C11.7344 6.01562 11.8177 6.05208 11.8906 6.125C11.9635 6.19792 12 6.28125 12 6.375V8.8125C12 8.90625 11.9635 8.98958 11.8906 9.0625C11.8177 9.13542 11.7344 9.17188 11.6406 9.17188H9.57812V11.2344C9.57812 11.3281 9.54167 11.4115 9.46875 11.4844C9.39583 11.5573 9.3125 11.5938 9.21875 11.5938H6.78125C6.6875 11.5938 6.60417 11.5573 6.53125 11.4844C6.45833 11.4115 6.42188 11.3281 6.42188 11.2344V9.17188H4.35938C4.26562 9.17188 4.18229 9.13542 4.10938 9.0625C4.03646 8.98958 4 8.90625 4 8.8125V6.375C4 6.28125 4.03646 6.19792 4.10938 6.125C4.18229 6.05208 4.26562 6.01562 4.35938 6.01562H6.42188V3.95312ZM7.15625 4.32812V6.375C7.15625 6.47917 7.11979 6.56771 7.04688 6.64062C6.97396 6.71354 6.88542 6.75 6.78125 6.75H4.73438V8.4375H6.78125C6.88542 8.4375 6.97396 8.47396 7.04688 8.54688C7.11979 8.61979 7.15625 8.70833 7.15625 8.8125V10.8594H8.84375V8.8125C8.84375 8.70833 8.88021 8.61979 8.95312 8.54688C9.02604 8.47396 9.11458 8.4375 9.21875 8.4375H11.2656V6.75H9.21875C9.11458 6.75 9.02604 6.71354 8.95312 6.64062C8.88021 6.56771 8.84375 6.47917 8.84375 6.375V4.32812H7.15625ZM0 0.78125C0 0.666667 0.0364583 0.572917 0.109375 0.5C0.182292 0.427083 0.270833 0.390625 0.375 0.390625H15.625C15.7292 0.390625 15.8177 0.427083 15.8906 0.5C15.9635 0.572917 16 0.666667 16 0.78125V4.9375C16 5.71875 15.9531 6.45312 15.8594 7.14062C15.7552 7.81771 15.6094 8.45573 15.4219 9.05469C15.2344 9.65365 15.0052 10.2135 14.7344 10.7344C14.4635 11.2552 14.151 11.7448 13.7969 12.2031C13.4531 12.651 13.0729 13.0729 12.6562 13.4688C12.2396 13.8542 11.7917 14.2161 11.3125 14.5547C10.8333 14.8932 10.3333 15.2083 9.8125 15.5C9.28125 15.8021 8.72917 16.0885 8.15625 16.3594C8.10417 16.3802 8.04948 16.3906 7.99219 16.3906C7.9349 16.3906 7.88542 16.3802 7.84375 16.3594C7.27083 16.0885 6.71875 15.8021 6.1875 15.5C5.66667 15.2083 5.16667 14.8932 4.6875 14.5547C4.20833 14.2161 3.76042 13.849 3.34375 13.4531C2.92708 13.0677 2.54688 12.651 2.20312 12.2031C1.84896 11.7448 1.53646 11.2552 1.26562 10.7344C0.994792 10.2135 0.765625 9.65365 0.578125 9.05469C0.390625 8.45573 0.244792 7.81771 0.140625 7.14062C0.046875 6.45312 0 5.71875 0 4.9375V0.78125ZM0.765625 1.15625V4.9375C0.765625 5.67708 0.8125 6.375 0.90625 7.03125C1 7.67708 1.13281 8.27865 1.30469 8.83594C1.47656 9.39323 1.6875 9.91146 1.9375 10.3906C2.19792 10.8698 2.48438 11.3177 2.79688 11.7344C3.11979 12.1406 3.46875 12.5208 3.84375 12.875C4.21875 13.2292 4.625 13.5651 5.0625 13.8828C5.5 14.2005 5.96354 14.5 6.45312 14.7812C6.94271 15.0625 7.45833 15.3333 8 15.5938C8.54167 15.3333 9.05729 15.0625 9.54688 14.7812C10.0365 14.5 10.5 14.2005 10.9375 13.8828C11.375 13.5651 11.7812 13.2292 12.1562 12.875C12.5312 12.5208 12.8802 12.1406 13.2031 11.7344C13.5156 11.3177 13.8021 10.8698 14.0625 10.3906C14.3125 9.91146 14.5234 9.39323 14.6953 8.83594C14.8672 8.27865 15 7.67708 15.0938 7.03125C15.1875 6.375 15.2344 5.67708 15.2344 4.9375V1.15625H0.765625Z" fill="white"/>
</svg>
