<svg width="49" height="49" viewBox="0 0 49 49" fill="none" xmlns="http://www.w3.org/2000/svg">
<path d="M24.19 46.19C21.2213 46.19 18.4244 45.6119 15.7994 44.4556C13.1744 43.3306 10.8853 41.7916 8.93219 39.8384C6.97906 37.8853 5.42438 35.5963 4.26813 32.9713C3.14313 30.3463 2.58063 27.5494 2.58063 24.5806C2.58063 21.5806 3.14313 18.7681 4.26813 16.1431C5.42438 13.5494 6.97906 11.2681 8.93219 9.29938C10.8853 7.33063 13.1744 5.78375 15.7994 4.65875C18.4244 3.53375 21.2213 2.97125 24.19 2.97125C27.1588 2.97125 29.9556 3.53375 32.5806 4.65875C35.2056 5.78375 37.4947 7.33063 39.4478 9.29938C41.4009 11.2681 42.9556 13.5494 44.1119 16.1431C45.2369 18.7681 45.7994 21.5806 45.7994 24.5806C45.7994 27.5494 45.2369 30.3463 44.1119 32.9713C42.9556 35.5963 41.4009 37.8853 39.4478 39.8384C37.4947 41.7916 35.2056 43.3306 32.5806 44.4556C29.9556 45.6119 27.1588 46.19 24.19 46.19ZM24.19 48.5806C27.5025 48.5806 30.6119 47.9556 33.5181 46.7056C36.4556 45.4244 39.0103 43.6978 41.1822 41.5259C43.3541 39.3541 45.065 36.815 46.315 33.9088C47.565 31.0025 48.19 27.8931 48.19 24.5806C48.19 21.2681 47.565 18.1588 46.315 15.2525C45.065 12.315 43.3541 9.76031 41.1822 7.58844C39.0103 5.41657 36.4556 3.70563 33.5181 2.45563C30.6119 1.20563 27.5025 0.580627 24.19 0.580627C20.8775 0.580627 17.7681 1.20563 14.8619 2.45563C11.9244 3.70563 9.36969 5.41657 7.19781 7.58844C5.02594 9.76031 3.315 12.315 2.065 15.2525C0.815002 18.1588 0.190002 21.2681 0.190002 24.5806C0.190002 27.8931 0.815002 31.0025 2.065 33.9088C3.315 36.815 5.02594 39.3541 7.19781 41.5259C9.36969 43.6978 11.9244 45.4244 14.8619 46.7056C17.7681 47.9556 20.8775 48.5806 24.19 48.5806ZM24.4244 20.9244C24.1744 21.1744 24.0338 21.4869 24.0025 21.8619C23.9713 22.2369 24.065 22.5806 24.2838 22.8931C24.5025 23.1744 24.7759 23.3306 25.1041 23.3619C25.4322 23.3931 25.7369 23.2838 26.0181 23.0338L30.94 18.44C31.0963 18.315 31.2134 18.1588 31.2916 17.9713C31.3697 17.7838 31.4088 17.5806 31.4088 17.3619C31.4088 17.1744 31.3697 16.9869 31.2916 16.7994C31.2134 16.6119 31.0963 16.4556 30.94 16.3306L26.0181 11.69C25.7369 11.44 25.4322 11.3306 25.1041 11.3619C24.7759 11.3931 24.5025 11.565 24.2838 11.8775C24.065 12.1588 23.9713 12.4947 24.0025 12.8853C24.0338 13.2759 24.1744 13.5806 24.4244 13.7994L26.7681 16.0025H18.2369C17.8931 16.0025 17.5963 16.1353 17.3463 16.4009C17.0963 16.6666 16.9713 16.9869 16.9713 17.3619C16.9713 17.7369 17.0963 18.065 17.3463 18.3463C17.5963 18.6275 17.8931 18.7681 18.2369 18.7681H26.7681L24.4244 20.9244ZM23.9556 29.4088C24.2056 29.1588 24.3463 28.8463 24.3775 28.4713C24.4088 28.0963 24.315 27.7681 24.0963 27.4869C23.8775 27.1744 23.6041 27.0025 23.2759 26.9713C22.9478 26.94 22.6431 27.0494 22.3619 27.2994L17.44 31.8931C17.2838 32.0494 17.1666 32.2134 17.0884 32.3853C17.0103 32.5572 16.9713 32.7525 16.9713 32.9713C16.9713 33.19 17.0103 33.3853 17.0884 33.5572C17.1666 33.7291 17.2838 33.8931 17.44 34.0494L22.3619 38.6431C22.6431 38.8931 22.9478 39.0025 23.2759 38.9713C23.6041 38.94 23.8775 38.7681 24.0963 38.4556C24.315 38.1744 24.4088 37.8463 24.3775 37.4713C24.3463 37.0963 24.2056 36.7838 23.9556 36.5338L21.6119 34.3775H30.1431C30.4869 34.3775 30.7838 34.2369 31.0338 33.9556C31.2838 33.6744 31.4088 33.3463 31.4088 32.9713C31.4088 32.5963 31.2838 32.2681 31.0338 31.9869C30.7838 31.7056 30.4869 31.565 30.1431 31.565H21.6119L23.9556 29.4088Z" fill="#211EBA"/>
</svg>
