<svg width="26" height="21" viewBox="0 0 26 21" fill="none" xmlns="http://www.w3.org/2000/svg">
<path d="M14.7611 20.375C14.5137 20.1406 14.39 19.8509 14.39 19.5059C14.39 19.1608 14.5137 18.8646 14.7611 18.6172L21.3627 11.9961H1.89001C1.53845 11.9961 1.24223 11.8757 1.00134 11.6348C0.760457 11.3939 0.640015 11.0977 0.640015 10.7461C0.640015 10.4076 0.760457 10.1146 1.00134 9.86719C1.24223 9.61979 1.53845 9.49609 1.89001 9.49609H21.3627L14.7611 2.875C14.5137 2.64062 14.39 2.35091 14.39 2.00586C14.39 1.66081 14.5137 1.36458 14.7611 1.11719C14.9955 0.869792 15.2885 0.746094 15.64 0.746094C15.9916 0.746094 16.2845 0.869792 16.5189 1.11719L25.2689 9.86719C25.5163 10.1146 25.64 10.4108 25.64 10.7559C25.64 11.1009 25.5163 11.3906 25.2689 11.625L16.5189 20.375C16.2845 20.6224 15.9916 20.7461 15.64 20.7461C15.2885 20.7461 14.9955 20.6224 14.7611 20.375Z" fill="white"/>
</svg>
