<svg width="26" height="21" viewBox="0 0 26 21" fill="none" xmlns="http://www.w3.org/2000/svg">
<path d="M14.2611 20.375C14.0137 20.1406 13.89 19.8509 13.89 19.5059C13.89 19.1608 14.0137 18.8646 14.2611 18.6172L20.8627 11.9961H1.39C1.03844 11.9961 0.742213 11.8757 0.501328 11.6348C0.260442 11.3939 0.139999 11.0977 0.139999 10.7461C0.139999 10.4076 0.260442 10.1146 0.501328 9.86719C0.742213 9.61979 1.03844 9.49609 1.39 9.49609H20.8627L14.2611 2.875C14.0137 2.64062 13.89 2.35091 13.89 2.00586C13.89 1.66081 14.0137 1.36458 14.2611 1.11719C14.4955 0.869792 14.7884 0.746094 15.14 0.746094C15.4916 0.746094 15.7845 0.869792 16.0189 1.11719L24.7689 9.86719C25.0163 10.1146 25.14 10.4108 25.14 10.7559C25.14 11.1009 25.0163 11.3906 24.7689 11.625L16.0189 20.375C15.7845 20.6224 15.4916 20.7461 15.14 20.7461C14.7884 20.7461 14.4955 20.6224 14.2611 20.375Z" fill="black"/>
</svg>
