<svg width="230" height="22" viewBox="0 0 230 22" fill="none" xmlns="http://www.w3.org/2000/svg">
<g clip-path="url(#clip0_1_223)">
<mask id="mask0_1_223" style="mask-type:luminance" maskUnits="userSpaceOnUse" x="0" y="0" width="230" height="22">
<path d="M229.914 0H0V22H229.914V0Z" fill="white"/>
</mask>
<g mask="url(#mask0_1_223)">
<path d="M9.27054 4.76587C9.05935 4.76587 8.80195 4.98367 8.80195 5.37967V6.97027H13.204V5.37967C13.204 4.98367 12.94 4.76587 12.7354 4.76587H9.27054Z" fill="white"/>
<path fill-rule="evenodd" clip-rule="evenodd" d="M10.9997 9.66309C9.65333 9.66309 8.56436 10.7587 8.56436 12.0985C8.56436 13.4383 9.65993 14.5339 10.9997 14.5339C12.3395 14.5339 13.435 13.4383 13.435 12.0985C13.435 10.7587 12.3395 9.66309 10.9997 9.66309ZM11.1053 10.7521L11.5013 11.5573H11.4749L12.3659 11.6893C12.4187 11.6959 12.4516 11.7223 12.4648 11.7619C12.4781 11.8015 12.4385 11.8741 12.4385 11.8741L11.7983 12.5011L11.9501 13.3855C11.9567 13.4251 11.9369 13.4647 11.9039 13.4911C11.8577 13.5109 11.8181 13.5175 11.7785 13.4977L10.9865 13.0819L10.1945 13.4977C10.1483 13.5175 10.1021 13.5109 10.0691 13.4911C10.0361 13.4713 10.0163 13.4251 10.0229 13.3855L10.1747 12.5011L9.53453 11.8741C9.50813 11.8477 9.49493 11.8015 9.50813 11.7619C9.52793 11.7223 9.56753 11.6893 9.60713 11.6893L10.4981 11.5573L10.8941 10.7521C10.9205 10.7191 10.9535 10.6927 10.9997 10.6927C11.0459 10.6927 11.0855 10.7125 11.1053 10.7521Z" fill="white"/>
<path fill-rule="evenodd" clip-rule="evenodd" d="M5.64724 7.70289C5.38985 7.70289 5.13246 7.93389 5.13246 8.29029V15.9199C5.13246 16.2763 5.38985 16.5073 5.64724 16.5073H16.3521C16.6095 16.5073 16.8669 16.2763 16.8669 15.9199V8.28369C16.8669 7.92729 16.6095 7.69629 16.3521 7.69629H5.64724V7.70289ZM7.33019 16.5007V7.70289H6.59761V16.5007H7.33019ZM15.4018 7.70289V16.5007H14.6692V7.70289H15.4018ZM10.9997 15.1939C9.29034 15.1939 7.90438 13.8079 7.90438 12.0985C7.90438 10.3891 9.29034 9.00309 10.9997 9.00309C12.709 9.00309 14.095 10.3891 14.095 12.0985C14.095 13.8079 12.709 15.1939 10.9997 15.1939Z" fill="white"/>
<path fill-rule="evenodd" clip-rule="evenodd" d="M10.9997 22C17.0747 22 21.9994 17.0751 21.9994 11C21.9994 4.92487 17.0747 0 10.9997 0C4.92473 0 0 4.92487 0 11C0 17.0751 4.92473 22 10.9997 22ZM5.64724 6.97033H8.06937V5.37973C8.06937 4.69333 8.55776 4.03333 9.27714 4.03333H12.7354C13.4548 4.03333 13.9366 4.68673 13.9366 5.37973V6.97033H16.3521C17.0649 6.97033 17.5995 7.59073 17.5995 8.29033V15.9199C17.5995 16.6195 17.0715 17.2399 16.3521 17.2399H5.64724C4.92786 17.2399 4.39988 16.6195 4.39988 15.9199V8.29033C4.39988 7.59073 4.92786 6.97033 5.64724 6.97033Z" fill="white"/>
<path d="M187.452 5.05994V16.8666H189.644V5.05994H187.452Z" fill="white"/>
<path d="M189.408 1.78784L187.131 4.09857H188.953L191.887 1.78784H189.408Z" fill="white"/>
<path d="M57.8718 17.1028C56.9386 17.1028 56.0728 16.9566 55.2744 16.6643C54.4874 16.3607 53.8015 15.9334 53.2168 15.3824C52.6433 14.8314 52.1936 14.1849 51.8675 13.4427C51.5414 12.6893 51.3783 11.8629 51.3783 10.9633C51.3783 10.0638 51.5414 9.24292 51.8675 8.50078C52.1936 7.7474 52.6433 7.09523 53.2168 6.54425C53.8015 5.99327 54.4874 5.5716 55.2744 5.27925C56.0728 4.97565 56.9386 4.82385 57.8718 4.82385C58.9625 4.82385 59.9351 5.015 60.7897 5.39732C61.6555 5.77963 62.3751 6.3306 62.9486 7.05025L60.8234 8.97305C60.4411 8.52327 60.0195 8.18032 59.5585 7.94418C59.1087 7.70805 58.6027 7.58998 58.0405 7.58998C57.557 7.58998 57.1129 7.66869 56.7081 7.82612C56.3033 7.98354 55.9547 8.21405 55.6624 8.51765C55.3813 8.81 55.1564 9.16421 54.9877 9.58025C54.8303 9.99629 54.7516 10.4573 54.7516 10.9633C54.7516 11.4693 54.8303 11.9303 54.9877 12.3464C55.1564 12.7624 55.3813 13.1223 55.6624 13.4259C55.9547 13.7182 56.3033 13.9431 56.7081 14.1005C57.1129 14.2579 57.557 14.3367 58.0405 14.3367C58.6027 14.3367 59.1087 14.2186 59.5585 13.9825C60.0195 13.7463 60.4411 13.4034 60.8234 12.9536L62.9486 14.8764C62.3751 15.5848 61.6555 16.1358 60.7897 16.5293C59.9351 16.9116 58.9625 17.1028 57.8718 17.1028Z" fill="white"/>
<path fill-rule="evenodd" clip-rule="evenodd" d="M27.2133 5.05994V16.8666H30.5528V13.78H32.6105C33.6899 13.78 34.6176 13.6057 35.3934 13.2571C36.1805 12.8973 36.7877 12.3913 37.215 11.7391C37.6422 11.0869 37.8559 10.3167 37.8559 9.42841C37.8559 8.52885 37.6422 7.75299 37.215 7.10081C36.7877 6.43739 36.1805 5.93139 35.3934 5.58281C34.6176 5.23423 33.6899 5.05994 32.6105 5.05994H27.2133ZM30.5528 11.1488H32.4081C33.1052 11.1488 33.6225 10.997 33.9598 10.6934C34.3084 10.3898 34.4826 9.96814 34.4826 9.42841C34.4826 8.87743 34.3084 8.45014 33.9598 8.14654C33.6225 7.84294 33.1052 7.69114 32.4081 7.69114H30.5528V11.1488Z" fill="white"/>
<path fill-rule="evenodd" clip-rule="evenodd" d="M42.6861 5.05994L37.4744 16.8666H40.8814L41.8019 14.5727H46.8085L47.7291 16.8666H51.2035L45.975 5.05994H42.6861ZM45.8202 12.1102L44.3052 8.33507L42.7902 12.1102H45.8202Z" fill="white"/>
<path fill-rule="evenodd" clip-rule="evenodd" d="M67.53 16.6474C68.3283 16.951 69.1997 17.1028 70.1442 17.1028C71.1 17.1028 71.9714 16.951 72.7585 16.6474C73.5568 16.3438 74.2483 15.9165 74.833 15.3655C75.4177 14.8145 75.8731 14.168 76.1992 13.4259C76.5365 12.6725 76.7052 11.8516 76.7052 10.9633C76.7052 10.075 76.5365 9.25978 76.1992 8.51765C75.8731 7.77552 75.4177 7.12896 74.833 6.57798C74.2483 6.01576 73.5568 5.58285 72.7585 5.27925C71.9714 4.97565 71.1 4.82385 70.1442 4.82385C69.1997 4.82385 68.3283 4.97565 67.53 5.27925C66.7316 5.58285 66.0345 6.01576 65.4386 6.57798C64.8539 7.12896 64.3985 7.77552 64.0724 8.51765C63.7463 9.25978 63.5833 10.075 63.5833 10.9633C63.5833 11.8516 63.7463 12.6669 64.0724 13.409C64.3985 14.1511 64.8539 14.8033 65.4386 15.3655C66.0345 15.9165 66.7316 16.3438 67.53 16.6474ZM71.3923 14.1005C71.01 14.2579 70.594 14.3367 70.1442 14.3367C69.6945 14.3367 69.2728 14.2579 68.8793 14.1005C68.497 13.9431 68.1596 13.7182 67.8673 13.4259C67.5862 13.1223 67.3613 12.7624 67.1926 12.3464C67.0352 11.9303 66.9565 11.4693 66.9565 10.9633C66.9565 10.4461 67.0352 9.98505 67.1926 9.58025C67.3613 9.16421 67.5862 8.81 67.8673 8.51765C68.1596 8.21405 68.497 7.98354 68.8793 7.82612C69.2728 7.66869 69.6945 7.58998 70.1442 7.58998C70.594 7.58998 71.01 7.66869 71.3923 7.82612C71.7859 7.98354 72.1232 8.21405 72.4043 8.51765C72.6966 8.81 72.9215 9.16421 73.0789 9.58025C73.2476 9.98505 73.3319 10.4461 73.3319 10.9633C73.3319 11.4693 73.2476 11.9303 73.0789 12.3464C72.9215 12.7624 72.6966 13.1223 72.4043 13.4259C72.1232 13.7182 71.7859 13.9431 71.3923 14.1005Z" fill="white"/>
<path d="M80.8026 16.8666V7.70801H77.1764V5.05994H87.7515V7.70801H84.1421V16.8666H80.8026Z" fill="white"/>
<path d="M92.3014 12.127V14.286H98.4744V16.8666H88.9956V5.05994H98.2552V7.64054H92.3014V9.63081H97.5468V12.127H92.3014Z" fill="white"/>
<path d="M104.477 17.1028C103.51 17.1028 102.576 16.9847 101.677 16.7486C100.789 16.5012 100.063 16.1864 99.5012 15.8041L100.597 13.3415C101.126 13.6789 101.733 13.96 102.419 14.1849C103.116 14.3985 103.808 14.5053 104.494 14.5053C104.955 14.5053 105.326 14.466 105.607 14.3873C105.888 14.2973 106.09 14.1849 106.214 14.0499C106.349 13.9037 106.416 13.7351 106.416 13.5439C106.416 13.2741 106.293 13.0604 106.045 12.903C105.798 12.7456 105.477 12.6163 105.084 12.5151C104.69 12.4139 104.252 12.3127 103.768 12.2115C103.296 12.1103 102.818 11.9809 102.335 11.8235C101.862 11.6661 101.43 11.4637 101.036 11.2163C100.642 10.9577 100.322 10.626 100.075 10.2212C99.8272 9.80514 99.7036 9.28227 99.7036 8.65258C99.7036 7.94418 99.8947 7.30325 100.277 6.72978C100.671 6.15632 101.255 5.69529 102.031 5.34672C102.807 4.99814 103.774 4.82385 104.932 4.82385C105.708 4.82385 106.467 4.9138 107.209 5.09372C107.962 5.26238 108.631 5.51538 109.216 5.85271L108.187 8.33212C107.625 8.02852 107.068 7.80363 106.518 7.65745C105.967 7.50003 105.432 7.42132 104.915 7.42132C104.454 7.42132 104.083 7.47192 103.802 7.57312C103.521 7.66307 103.319 7.78676 103.195 7.94418C103.071 8.1016 103.009 8.28152 103.009 8.48392C103.009 8.74254 103.127 8.95056 103.364 9.10798C103.611 9.25416 103.931 9.37785 104.325 9.47905C104.73 9.569 105.168 9.66458 105.64 9.76578C106.124 9.86698 106.602 9.99629 107.074 10.1537C107.558 10.2999 107.996 10.5023 108.39 10.7609C108.783 11.0083 109.098 11.34 109.334 11.7561C109.582 12.1609 109.705 12.6725 109.705 13.2909C109.705 13.9768 109.508 14.6121 109.115 15.1969C108.733 15.7703 108.154 16.2313 107.378 16.5799C106.613 16.9285 105.646 17.1028 104.477 17.1028Z" fill="white"/>
<path d="M116.314 5.05994V16.8666H118.506V5.05994H116.314Z" fill="white"/>
<path d="M121.7 16.8666V5.05994H123.505L128.189 12.8836L132.798 5.05994H134.602L134.619 16.8666H132.545L132.529 9.04426L128.649 15.5172H127.67L123.791 9.14622V16.8666H121.7Z" fill="white"/>
<path fill-rule="evenodd" clip-rule="evenodd" d="M137.808 5.05994V16.8666H140.001V13.4595H142.666C143.712 13.4595 144.605 13.2908 145.348 12.9535C146.101 12.6162 146.68 12.1326 147.085 11.503C147.49 10.8733 147.692 10.1255 147.692 9.25974C147.692 8.39392 147.49 7.64616 147.085 7.01647C146.68 6.38679 146.101 5.90328 145.348 5.56594C144.605 5.22861 143.712 5.05994 142.666 5.05994H137.808ZM140.001 11.6042H142.565C143.532 11.6042 144.257 11.4018 144.74 10.997C145.235 10.5809 145.482 10.0018 145.482 9.25974C145.482 8.50636 145.235 7.92728 144.74 7.52248C144.257 7.11768 143.532 6.91528 142.565 6.91528H140.001V11.6042Z" fill="white"/>
<path d="M152.074 15.0281V11.7728H157.775V9.96814H152.074V6.89841H158.5V5.05994H149.882V16.8666H158.736V15.0281H152.074Z" fill="white"/>
<path fill-rule="evenodd" clip-rule="evenodd" d="M161.181 5.05994V16.8666H163.373V13.4258H166.038C166.195 13.4258 166.349 13.4221 166.5 13.4147L168.905 16.8666H171.267L168.559 13.0036C168.614 12.9821 168.667 12.9598 168.72 12.9366C169.473 12.5993 170.052 12.1214 170.457 11.503C170.862 10.8733 171.064 10.1255 171.064 9.25974C171.064 8.39392 170.862 7.64616 170.457 7.01647C170.052 6.38679 169.473 5.90328 168.72 5.56594C167.978 5.22861 167.084 5.05994 166.038 5.05994H161.181ZM163.373 11.621H165.937C166.904 11.621 167.629 11.413 168.113 10.997C168.607 10.5809 168.855 10.0018 168.855 9.25974C168.855 8.50636 168.607 7.92728 168.113 7.52248C167.629 7.11768 166.904 6.91528 165.937 6.91528H163.373V11.621Z" fill="white"/>
<path fill-rule="evenodd" clip-rule="evenodd" d="M173.517 16.8666V5.05994H178.678C179.96 5.05994 181.085 5.30732 182.052 5.80208C183.019 6.29683 183.772 6.98274 184.312 7.85981C184.851 8.73688 185.121 9.77136 185.121 10.9632C185.121 12.1439 184.851 13.1784 184.312 14.0667C183.772 14.9438 183.019 15.6297 182.052 16.1244C181.085 16.6192 179.96 16.8666 178.678 16.8666H173.517ZM175.71 15.0112H178.577C179.465 15.0112 180.23 14.8426 180.871 14.5052C181.523 14.1679 182.023 13.6956 182.372 13.0884C182.732 12.4812 182.912 11.7728 182.912 10.9632C182.912 10.1424 182.732 9.43403 182.372 8.83808C182.023 8.23088 181.523 7.75861 180.871 7.42128C180.23 7.08394 179.465 6.91528 178.577 6.91528H175.71V15.0112Z" fill="white"/>
<path d="M196.247 16.8666L191.085 5.05994H193.464L197.389 14.1613L201.357 5.05994H203.55L198.405 16.8666H196.247Z" fill="white"/>
<path d="M206.988 11.7728V15.0281H213.65V16.8666H204.795V5.05994H213.414V6.89841H206.988V9.96814H212.689V11.7728H206.988Z" fill="white"/>
<path d="M216.095 16.8666V5.05994H218.287V16.8666H216.095Z" fill="white"/>
<path d="M222.492 16.6474C223.336 16.906 224.218 17.0353 225.14 17.0353C226.22 17.0353 227.114 16.8779 227.822 16.5631C228.531 16.237 229.053 15.8097 229.391 15.2812C229.739 14.7415 229.914 14.1567 229.914 13.5271C229.914 12.9086 229.784 12.397 229.526 11.9922C229.278 11.5874 228.947 11.2669 228.531 11.0308C228.126 10.7947 227.67 10.6035 227.164 10.4573C226.67 10.3111 226.169 10.1818 225.663 10.0694C225.157 9.94574 224.696 9.82205 224.28 9.69837C223.876 9.57468 223.544 9.40601 223.285 9.19237C223.038 8.96748 222.914 8.67512 222.914 8.3153C222.914 8.0117 222.998 7.74183 223.167 7.5057C223.347 7.26957 223.622 7.07841 223.994 6.93223C224.376 6.78605 224.871 6.71296 225.478 6.71296C225.995 6.71296 226.535 6.79168 227.097 6.9491C227.659 7.09528 228.204 7.32579 228.733 7.64063L229.424 5.9371C228.907 5.59977 228.3 5.34114 227.603 5.16123C226.906 4.98132 226.203 4.89136 225.495 4.89136C224.415 4.89136 223.521 5.05441 222.813 5.3805C222.116 5.69534 221.593 6.12263 221.244 6.66237C220.907 7.19085 220.738 7.77557 220.738 8.4165C220.738 9.04619 220.868 9.56343 221.126 9.96823C221.385 10.373 221.717 10.6991 222.121 10.9465C222.537 11.1826 222.993 11.3794 223.488 11.5368C223.994 11.683 224.494 11.8123 224.989 11.9247C225.495 12.0372 225.95 12.1609 226.355 12.2958C226.771 12.4195 227.108 12.5938 227.367 12.8187C227.625 13.0323 227.755 13.319 227.755 13.6789C227.755 13.9712 227.665 14.2355 227.485 14.4716C227.305 14.6965 227.024 14.8764 226.642 15.0113C226.259 15.1463 225.759 15.2137 225.14 15.2137C224.41 15.2137 223.696 15.09 222.998 14.8427C222.301 14.5953 221.717 14.2861 221.244 13.915L220.485 15.6185C220.98 16.0346 221.649 16.3775 222.492 16.6474Z" fill="white"/>
</g>
</g>
<defs>
<clipPath id="clip0_1_223">
<rect width="230" height="22" fill="white"/>
</clipPath>
</defs>
</svg>
