<svg width="21" height="20" viewBox="0 0 21 20" fill="none" xmlns="http://www.w3.org/2000/svg">
<path d="M10.5 0.703125C9.25 0.703125 8.07812 0.9375 6.98438 1.40625C5.8776 1.88802 4.91732 2.53906 4.10352 3.35938C3.28971 4.17969 2.64193 5.13672 2.16016 6.23047C1.69141 7.32422 1.45703 8.49609 1.45703 9.74609C1.45703 10.9961 1.69141 12.1745 2.16016 13.2812C2.64193 14.375 3.28971 15.332 4.10352 16.1523C4.91732 16.9727 5.8776 17.6172 6.98438 18.0859C8.07812 18.5547 9.25 18.7891 10.5 18.7891C11.75 18.7891 12.9219 18.5547 14.0156 18.0859C15.1224 17.6172 16.0827 16.9727 16.8965 16.1523C17.7103 15.332 18.3581 14.375 18.8398 13.2812C19.3086 12.1745 19.543 10.9961 19.543 9.74609C19.543 8.49609 19.3086 7.32422 18.8398 6.23047C18.3581 5.13672 17.7103 4.17969 16.8965 3.35938C16.0827 2.53906 15.1224 1.88802 14.0156 1.40625C12.9219 0.9375 11.75 0.703125 10.5 0.703125ZM0.5 9.74609C0.5 8.36589 0.760417 7.07031 1.28125 5.85938C1.80208 4.64844 2.51497 3.59049 3.41992 2.68555C4.32487 1.7806 5.38932 1.0612 6.61328 0.527344C7.82422 0.00651043 9.11979 -0.253906 10.5 -0.253906C11.8802 -0.253906 13.1758 0.00651043 14.3867 0.527344C15.6107 1.0612 16.6751 1.7806 17.5801 2.68555C18.485 3.59049 19.1979 4.64844 19.7188 5.85938C20.2396 7.07031 20.5 8.36589 20.5 9.74609C20.5 11.1263 20.2396 12.4219 19.7188 13.6328C19.1979 14.8568 18.485 15.9212 17.5801 16.8262C16.6751 17.7311 15.6107 18.444 14.3867 18.9648C13.1758 19.4857 11.8802 19.7461 10.5 19.7461C9.11979 19.7461 7.82422 19.4857 6.61328 18.9648C5.38932 18.444 4.32487 17.7311 3.41992 16.8262C2.51497 15.9212 1.80208 14.8568 1.28125 13.6328C0.760417 12.4219 0.5 11.1263 0.5 9.74609ZM10.5 3.49609C10.5911 3.49609 10.6758 3.52214 10.7539 3.57422C10.832 3.6263 10.8906 3.69141 10.9297 3.76953L12.5898 7.14844L16.2812 7.67578C16.3724 7.6888 16.4538 7.72461 16.5254 7.7832C16.597 7.8418 16.6458 7.91667 16.6719 8.00781C16.6979 8.08594 16.7012 8.17057 16.6816 8.26172C16.6621 8.35286 16.6198 8.43099 16.5547 8.49609L13.8789 11.1133L14.5039 14.8047C14.5169 14.8958 14.5072 14.9837 14.4746 15.0684C14.4421 15.153 14.3867 15.2214 14.3086 15.2734C14.2305 15.3255 14.1491 15.3548 14.0645 15.3613C13.9798 15.3678 13.8919 15.3516 13.8008 15.3125L10.5 13.5547L7.19922 15.3125C7.10807 15.3516 7.02018 15.3678 6.93555 15.3613C6.85091 15.3548 6.76953 15.3255 6.69141 15.2734C6.61328 15.2214 6.55794 15.153 6.52539 15.0684C6.49284 14.9837 6.48307 14.8958 6.49609 14.8047L7.14062 11.1133L4.44531 8.49609C4.38021 8.43099 4.33789 8.35286 4.31836 8.26172C4.29883 8.17057 4.30208 8.08594 4.32812 8.00781C4.35417 7.91667 4.40299 7.8418 4.47461 7.7832C4.54622 7.72461 4.6276 7.6888 4.71875 7.67578L8.42969 7.14844L10.0703 3.76953C10.1094 3.69141 10.168 3.6263 10.2461 3.57422C10.3242 3.52214 10.4089 3.49609 10.5 3.49609ZM10.5 5.05859L9.17188 7.79297C9.13281 7.85807 9.08073 7.91341 9.01562 7.95898C8.95052 8.00456 8.87891 8.03385 8.80078 8.04688L5.8125 8.47656L7.98047 10.6055C8.03255 10.6576 8.07161 10.7227 8.09766 10.8008C8.1237 10.8789 8.13021 10.9505 8.11719 11.0156L7.60938 14.0234L10.2852 12.5977C10.3503 12.5716 10.4219 12.5586 10.5 12.5586C10.5781 12.5586 10.6497 12.5716 10.7148 12.5977L13.3906 14.0234L12.8828 11.0156C12.8698 10.9375 12.8763 10.8626 12.9023 10.791C12.9284 10.7194 12.9674 10.6576 13.0195 10.6055L15.1875 8.47656L12.1992 8.04688C12.1211 8.03385 12.0495 8.00456 11.9844 7.95898C11.9193 7.91341 11.8737 7.85807 11.8477 7.79297L10.5 5.05859Z" fill="#414042"/>
</svg>
