<svg width="16" height="15" viewBox="0 0 16 15" fill="none" xmlns="http://www.w3.org/2000/svg">
<path d="M4.0625 11.9531C4.0625 11.2865 4.29688 10.7188 4.76562 10.25C5.23438 9.78125 5.80208 9.54688 6.46875 9.54688H9.53125C10.1979 9.54688 10.7656 9.78125 11.2344 10.25C11.7031 10.7188 11.9375 11.2865 11.9375 11.9531C11.9375 12.0573 11.901 12.1458 11.8281 12.2188C11.7552 12.2917 11.6667 12.3281 11.5625 12.3281C11.4479 12.3281 11.3542 12.2917 11.2812 12.2188C11.2083 12.1458 11.1719 12.0573 11.1719 11.9531C11.1719 11.4948 11.0104 11.1042 10.6875 10.7812C10.3646 10.4583 9.97917 10.2969 9.53125 10.2969H6.46875C6.02083 10.2969 5.63542 10.4583 5.3125 10.7812C4.98958 11.1042 4.82812 11.4948 4.82812 11.9531C4.82812 12.0573 4.79167 12.1458 4.71875 12.2188C4.64583 12.2917 4.55208 12.3281 4.4375 12.3281C4.33333 12.3281 4.24479 12.2917 4.17188 12.2188C4.09896 12.1458 4.0625 12.0573 4.0625 11.9531ZM2.40625 4.46875C2.52083 4.46875 2.61458 4.50521 2.6875 4.57812C2.76042 4.65104 2.79688 4.73958 2.79688 4.84375C2.79688 4.89583 2.8099 4.94531 2.83594 4.99219C2.86198 5.03906 2.92708 5.08854 3.03125 5.14062C3.13542 5.19271 3.27604 5.24219 3.45312 5.28906C3.63021 5.33594 3.84375 5.36979 4.09375 5.39062C4.5 5.44271 4.97135 5.47135 5.50781 5.47656C6.04427 5.48177 6.61979 5.48438 7.23438 5.48438C7.35938 5.48438 7.48698 5.48438 7.61719 5.48438C7.7474 5.48438 7.875 5.48438 8 5.48438C8.125 5.48438 8.2526 5.48438 8.38281 5.48438C8.51302 5.48438 8.64062 5.48438 8.76562 5.48438C9.38021 5.48438 9.95573 5.48177 10.4922 5.47656C11.0286 5.47135 11.5 5.44271 11.9062 5.39062C12.1562 5.36979 12.3698 5.33594 12.5469 5.28906C12.724 5.24219 12.8646 5.19271 12.9688 5.14062C13.0729 5.08854 13.138 5.03906 13.1641 4.99219C13.1901 4.94531 13.2031 4.89583 13.2031 4.84375C13.2031 4.73958 13.2396 4.65104 13.3125 4.57812C13.3854 4.50521 13.4792 4.46875 13.5938 4.46875C13.6979 4.46875 13.7865 4.50521 13.8594 4.57812C13.9323 4.65104 13.9688 4.73958 13.9688 4.84375C13.9688 5.07292 13.9062 5.26823 13.7812 5.42969C13.6562 5.59115 13.5052 5.71875 13.3281 5.8125C13.151 5.90625 12.9479 5.97917 12.7188 6.03125C12.4896 6.08333 12.25 6.125 12 6.15625C11.5625 6.19792 11.0651 6.22396 10.5078 6.23438C9.95052 6.24479 9.36458 6.24479 8.75 6.23438C8.625 6.23438 8.5 6.23438 8.375 6.23438C8.25 6.23438 8.125 6.23438 8 6.23438C7.875 6.23438 7.75 6.23438 7.625 6.23438C7.5 6.23438 7.375 6.23438 7.25 6.23438C6.63542 6.24479 6.04948 6.24479 5.49219 6.23438C4.9349 6.22396 4.4375 6.19792 4 6.15625C3.75 6.125 3.51042 6.08333 3.28125 6.03125C3.05208 5.97917 2.84896 5.90625 2.67188 5.8125C2.49479 5.71875 2.34375 5.59115 2.21875 5.42969C2.09375 5.26823 2.03125 5.07292 2.03125 4.84375C2.03125 4.73958 2.06771 4.65104 2.14062 4.57812C2.21354 4.50521 2.30208 4.46875 2.40625 4.46875ZM0.3125 7.875C0.3125 7.77083 0.351562 7.68229 0.429688 7.60938C0.507812 7.53646 0.598958 7.5 0.703125 7.5L1.40625 7.51562C1.69792 7.51562 1.98698 7.54427 2.27344 7.60156C2.5599 7.65885 2.81771 7.76042 3.04688 7.90625C3.28646 8.0625 3.47396 8.26823 3.60938 8.52344C3.74479 8.77865 3.8125 9.07812 3.8125 9.42188C3.8125 9.66146 3.72396 9.86719 3.54688 10.0391C3.36979 10.2109 3.16146 10.2969 2.92188 10.2969H0.375C0.270833 10.2969 0.182292 10.2604 0.109375 10.1875C0.0364583 10.1146 0 10.026 0 9.92188C0 9.81771 0.0364583 9.72917 0.109375 9.65625C0.182292 9.58333 0.270833 9.54688 0.375 9.54688H2.92188C2.95312 9.54688 2.98177 9.53385 3.00781 9.50781C3.03385 9.48177 3.04688 9.45312 3.04688 9.42188C3.04688 9.19271 3.00781 9.01042 2.92969 8.875C2.85156 8.73958 2.75 8.63021 2.625 8.54688C2.48958 8.45312 2.31771 8.38281 2.10938 8.33594C1.90104 8.28906 1.66146 8.26562 1.39062 8.26562H0.703125C0.588542 8.26562 0.494792 8.22656 0.421875 8.14844C0.348958 8.07031 0.3125 7.97917 0.3125 7.875ZM13.375 8.54688C13.25 8.63021 13.1484 8.73958 13.0703 8.875C12.9922 9.01042 12.9531 9.19271 12.9531 9.42188C12.9531 9.45312 12.9661 9.48177 12.9922 9.50781C13.0182 9.53385 13.0469 9.54688 13.0781 9.54688H15.625C15.7292 9.54688 15.8177 9.58333 15.8906 9.65625C15.9635 9.72917 16 9.81771 16 9.92188C16 10.026 15.9635 10.1146 15.8906 10.1875C15.8177 10.2604 15.7292 10.2969 15.625 10.2969H13.0781C12.8385 10.2969 12.6302 10.2109 12.4531 10.0391C12.276 9.86719 12.1875 9.66146 12.1875 9.42188C12.1875 9.07812 12.2552 8.77865 12.3906 8.52344C12.526 8.26823 12.7135 8.0625 12.9531 7.90625C13.1823 7.76042 13.4401 7.65885 13.7266 7.60156C14.013 7.54427 14.3073 7.51562 14.6094 7.51562H15.2969C15.401 7.51562 15.4922 7.55208 15.5703 7.625C15.6484 7.69792 15.6875 7.78646 15.6875 7.89062C15.6875 7.99479 15.6484 8.08333 15.5703 8.15625C15.4922 8.22917 15.401 8.26562 15.2969 8.26562H14.6094C14.3385 8.26562 14.099 8.28906 13.8906 8.33594C13.6823 8.38281 13.5104 8.45312 13.375 8.54688ZM0 5.34375C0 5.10417 0.0859375 4.89844 0.257812 4.72656C0.429688 4.55469 0.640625 4.46875 0.890625 4.46875H2.40625C2.52083 4.46875 2.61458 4.50521 2.6875 4.57812C2.76042 4.65104 2.79688 4.73958 2.79688 4.84375C2.79688 4.94792 2.76042 5.03646 2.6875 5.10938C2.61458 5.18229 2.52083 5.21875 2.40625 5.21875H0.890625C0.859375 5.21875 0.830729 5.23177 0.804688 5.25781C0.778646 5.28385 0.765625 5.3125 0.765625 5.34375V5.85938C0.765625 6.03646 0.828125 6.1875 0.953125 6.3125C1.07812 6.4375 1.22396 6.5 1.39062 6.5C1.49479 6.5 1.58594 6.53646 1.66406 6.60938C1.74219 6.68229 1.78125 6.77083 1.78125 6.875V6.92188C1.78125 6.97396 1.77083 7.02344 1.75 7.07031C1.72917 7.11719 1.70312 7.16146 1.67188 7.20312C1.44271 7.43229 1.26562 7.65625 1.14062 7.875C1.01562 8.09375 0.927083 8.30729 0.875 8.51562C0.822917 8.73438 0.791667 8.95833 0.78125 9.1875C0.770833 9.41667 0.765625 9.66146 0.765625 9.92188V13.4844C0.765625 13.5156 0.778646 13.5443 0.804688 13.5703C0.830729 13.5964 0.859375 13.6094 0.890625 13.6094H2.92188C2.95312 13.6094 2.98177 13.5964 3.00781 13.5703C3.03385 13.5443 3.04688 13.5156 3.04688 13.4844V11.9531C3.04688 11.849 3.08333 11.7604 3.15625 11.6875C3.22917 11.6146 3.31771 11.5781 3.42188 11.5781H12.5781C12.6823 11.5781 12.7708 11.6146 12.8438 11.6875C12.9167 11.7604 12.9531 11.849 12.9531 11.9531V13.4844C12.9531 13.5156 12.9661 13.5443 12.9922 13.5703C13.0182 13.5964 13.0469 13.6094 13.0781 13.6094H15.1094C15.1406 13.6094 15.1693 13.5964 15.1953 13.5703C15.2214 13.5443 15.2344 13.5156 15.2344 13.4844V9.92188C15.2344 9.66146 15.2292 9.41667 15.2188 9.1875C15.2083 8.95833 15.1771 8.73438 15.125 8.51562C15.0729 8.30729 14.9844 8.09375 14.8594 7.875C14.7344 7.65625 14.5573 7.43229 14.3281 7.20312C14.2969 7.16146 14.2708 7.11719 14.25 7.07031C14.2292 7.02344 14.2188 6.97396 14.2188 6.92188V6.875C14.2188 6.77083 14.2578 6.68229 14.3359 6.60938C14.4141 6.53646 14.5052 6.5 14.6094 6.5C14.776 6.5 14.9219 6.4375 15.0469 6.3125C15.1719 6.1875 15.2344 6.03646 15.2344 5.85938V5.34375C15.2344 5.3125 15.2214 5.28385 15.1953 5.25781C15.1693 5.23177 15.1406 5.21875 15.1094 5.21875H13.5938C13.4792 5.21875 13.3854 5.18229 13.3125 5.10938C13.2396 5.03646 13.2031 4.94792 13.2031 4.84375C13.2031 4.73958 13.2396 4.65104 13.3125 4.57812C13.3854 4.50521 13.4792 4.46875 13.5938 4.46875H15.1094C15.3594 4.46875 15.5703 4.55469 15.7422 4.72656C15.9141 4.89844 16 5.10417 16 5.34375V5.85938C16 6.13021 15.9323 6.375 15.7969 6.59375C15.6615 6.8125 15.4792 6.97917 15.25 7.09375C15.4062 7.30208 15.5339 7.50781 15.6328 7.71094C15.7318 7.91406 15.8073 8.11979 15.8594 8.32812C15.901 8.50521 15.9323 8.67708 15.9531 8.84375C15.974 9.01042 15.9896 9.17708 16 9.34375C16 9.35417 16 9.36458 16 9.375C16 9.38542 16 9.40104 16 9.42188V9.85938C16 9.86979 16 9.8776 16 9.88281C16 9.88802 16 9.89583 16 9.90625V13.4844C16 13.724 15.9141 13.9323 15.7422 14.1094C15.5703 14.2865 15.3594 14.375 15.1094 14.375H13.0781C12.8385 14.375 12.6302 14.2865 12.4531 14.1094C12.276 13.9323 12.1875 13.724 12.1875 13.4844V12.3281H3.8125V13.4844C3.8125 13.724 3.72396 13.9323 3.54688 14.1094C3.36979 14.2865 3.16146 14.375 2.92188 14.375H0.890625C0.640625 14.375 0.429688 14.2865 0.257812 14.1094C0.0859375 13.9323 0 13.724 0 13.4844V9.90625C0 9.65625 0.00520833 9.39844 0.015625 9.13281C0.0260417 8.86719 0.0677083 8.59896 0.140625 8.32812C0.192708 8.11979 0.268229 7.91406 0.367188 7.71094C0.466146 7.50781 0.59375 7.30208 0.75 7.09375C0.520833 6.97917 0.338542 6.8125 0.203125 6.59375C0.0677083 6.375 0 6.13021 0 5.85938V5.34375ZM3.07812 1.65625C3.20312 1.30208 3.47917 1.0026 3.90625 0.757812C4.33333 0.513021 4.84896 0.390625 5.45312 0.390625H10.5469C11.151 0.390625 11.6667 0.513021 12.0938 0.757812C12.5208 1.0026 12.7969 1.30208 12.9219 1.65625C12.9219 1.65625 12.9245 1.65885 12.9297 1.66406C12.9349 1.66927 12.9375 1.67188 12.9375 1.67188L13.9531 4.71875C13.9844 4.82292 13.9766 4.92188 13.9297 5.01562C13.8828 5.10938 13.8073 5.17188 13.7031 5.20312C13.6094 5.23438 13.5156 5.22656 13.4219 5.17969C13.3281 5.13281 13.2604 5.0625 13.2188 4.96875L12.2188 1.92188C12.1562 1.76562 11.9896 1.59896 11.7188 1.42188C11.4479 1.24479 11.0573 1.15625 10.5469 1.15625H5.45312C4.94271 1.15625 4.55208 1.24479 4.28125 1.42188C4.01042 1.59896 3.84375 1.76562 3.78125 1.92188L2.78125 4.96875C2.73958 5.0625 2.67188 5.13281 2.57812 5.17969C2.48438 5.22656 2.39062 5.23438 2.29688 5.20312C2.19271 5.17188 2.11719 5.10938 2.07031 5.01562C2.02344 4.92188 2.01562 4.82292 2.04688 4.71875L3.0625 1.67188C3.0625 1.67188 3.0651 1.66927 3.07031 1.66406C3.07552 1.65885 3.07812 1.65625 3.07812 1.65625Z" fill="white"/>
</svg>
